<?xml version="1.0" encoding="utf-8"?>
<!-- Generator: Adobe Illustrator 26.5.0, SVG Export Plug-In . SVG Version: 6.00 Build 0)  -->
<svg version="1.1"
	 id="svg8" xmlns:inkscape="http://www.inkscape.org/namespaces/inkscape" xmlns:svg="http://www.w3.org/2000/svg" xmlns:cc="http://creativecommons.org/ns#" xmlns:sodipodi="http://sodipodi.sourceforge.net/DTD/sodipodi-0.dtd" xmlns:rdf="http://www.w3.org/1999/02/22-rdf-syntax-ns#" xmlns:dc="http://purl.org/dc/elements/1.1/" inkscape:version="0.92.4 (5da689c313, 2019-01-14)"
	 xmlns="http://www.w3.org/2000/svg" xmlns:xlink="http://www.w3.org/1999/xlink" x="0px" y="0px" viewBox="0 0 109.9 66.4"
	 style="enable-background:new 0 0 109.9 66.4;" xml:space="preserve">
<style type="text/css">
	.st0{fill:#FFFFFF;stroke:#FFFFFF;stroke-miterlimit:10;}
</style>
<sodipodi:namedview  bordercolor="#666666" borderopacity="1.0" id="base" inkscape:current-layer="layer1" inkscape:cx="218.72536" inkscape:cy="-71.502554" inkscape:document-units="mm" inkscape:guide-bbox="true" inkscape:pageopacity="0.0" inkscape:pageshadow="2" inkscape:window-height="1137" inkscape:window-maximized="1" inkscape:window-width="1920" inkscape:window-x="152" inkscape:window-y="-8" inkscape:zoom="2" pagecolor="#ffffff" showgrid="false" showguides="true">
	<sodipodi:guide  id="guide1124" inkscape:locked="false" orientation="1,0" position="-1.4305115e-06,0.42542342">
		</sodipodi:guide>
	<sodipodi:guide  id="guide1132" inkscape:locked="false" orientation="1,0" position="38.363662,-6.5952112e-06"></sodipodi:guide>
</sodipodi:namedview>
<g>
	<polygon class="st0" points="54.9,33.1 43.6,21.8 31.8,21.8 31.8,28.5 31.8,28.5 31.8,28.5 31.8,55.8 44.9,55.8 44.9,41.6 
		44.9,41.6 54.9,51.7 65,41.6 65,41.6 65,55.8 78.1,55.8 78.1,28.5 78.1,28.5 78.1,21.8 66.2,21.8 	"/>
	<path class="st0" d="M61.5,50l-6.5,6.5c0,0,0,0,0,0v0L48.4,50v9.4H31.8l0,6.5h23.2v0c0,0,0,0,0,0h23.2v-6.5H61.5V50z"/>
	<rect x="86.8" y="64.7" class="st0" width="22.5" height="1.2"/>
	<rect x="0.6" y="64.7" class="st0" width="22.5" height="1.2"/>
	<path class="st0" d="M54.9,28.1l9.8-9.8H78v-6.2H66.2L54.9,0.8L43.6,12.1H31.7v6.2h13.3L54.9,28.1z M54.9,10.9
		C54.9,10.9,54.9,10.9,54.9,10.9c1.8,0,3.2,1.3,3.5,3v1.2c-0.3,1.7-1.7,3-3.5,3c-1.8,0-3.2-1.3-3.5-3v-1.2
		C51.7,12.2,53.1,10.9,54.9,10.9z"/>
</g>
</svg>
