<svg xmlns:xlink="http://www.w3.org/1999/xlink" xmlns="http://www.w3.org/2000/svg" viewBox="0 0 128 44" width="150"  height="52" ><path fill="#FFFFFF" d="M55.641 35.542h-1.188v6.255h-1.074v-6.255H52.19v-0.952h3.45V35.542zM59.142 40.25h-1.009v0.775h-0.99v-1.307h1.708l0.291-0.289V37.72c0-0.384-0.198-0.574-0.594-0.574h-1.819c-0.396 0-0.595 0.19-0.595 0.574v3.501c0 0.384 0.198 0.575 0.595 0.575h1.819c0.396 0 0.594-0.191 0.594-0.575V40.25zM58.133 39.033h-0.99v-1.114h0.99V39.033zM62.914 40.033h-1.027v0.89h-0.945v-2.896h0.945v0.799h1.027V37.72c0-0.384-0.195-0.574-0.586-0.574H60.5c-0.396 0-0.594 0.19-0.594 0.574v3.501c0 0.384 0.197 0.575 0.594 0.575h1.828c0.391 0 0.586-0.191 0.586-0.575V40.033zM66.773 37.693c0-0.377-0.191-0.566-0.576-0.566 -0.18 0-0.426 0.023-0.736 0.074 -0.246 0.04-0.492 0.077-0.736 0.115v-2.727H63.67v7.207h1.055v-3.754l0.988-0.017v3.771h1.061V37.693zM70.633 37.693c0-0.377-0.191-0.566-0.576-0.566 -0.193 0-0.441 0.023-0.74 0.074 -0.244 0.038-0.488 0.075-0.732 0.115v-0.17h-1.055v4.65h1.055v-3.754l0.988-0.017v3.771h1.061V37.693zM74.456 37.72c0-0.384-0.195-0.574-0.585-0.574h-1.889c-0.396 0-0.594 0.19-0.594 0.574v3.501c0 0.384 0.198 0.575 0.594 0.575h1.889c0.39 0 0.585-0.191 0.585-0.575V37.72zM73.425 40.922h-1v-2.896h1V40.922zM76.279 34.588h-1.037v7.208h1.037V34.588zM80.131 37.72c0-0.384-0.195-0.574-0.585-0.574h-1.89c-0.396 0-0.592 0.19-0.592 0.574v3.501c0 0.384 0.196 0.575 0.592 0.575h1.89c0.39 0 0.585-0.191 0.585-0.575V37.72zM79.099 40.922H78.1v-2.896h0.999V40.922zM83.976 37.145h-1.049v0.171c-0.666-0.125-1.065-0.188-1.198-0.188 -0.264 0-0.471 0.075-0.621 0.229 -0.15 0.153-0.226 0.364-0.226 0.63v2.847c0 0.293 0.087 0.522 0.26 0.688 0.175 0.164 0.408 0.248 0.702 0.248h1.083v0.962h-0.954v-0.557h-1.018v0.744c0 0.387 0.197 0.576 0.595 0.576h1.833c0.396 0 0.593-0.189 0.593-0.576V37.145zM82.277 40.921c-0.233 0-0.351-0.115-0.351-0.35v-2.228c0-0.226 0.114-0.337 0.341-0.337 0.086 0 0.305 0.019 0.659 0.054v2.86H82.277zM86.812 37.144l-0.611 3.059 -0.613-3.059h-1.082l1.18 4.616 -0.484 1.735h1.08l0.445-1.759 1.166-4.593H86.812zM93.363 39.618c0-0.198-0.066-0.379-0.198-0.538l-1.999-2.402v-1.522h1.557v1.621h0.641V35.1c0-0.151-0.046-0.273-0.141-0.368 -0.094-0.096-0.215-0.143-0.366-0.143h-1.813c-0.152 0-0.275 0.047-0.371 0.143 -0.098 0.095-0.146 0.217-0.146 0.368v1.46c0 0.199 0.067 0.382 0.207 0.548l1.989 2.405v1.717h-1.557v-1.773h-0.64v1.829c0 0.15 0.048 0.273 0.146 0.368 0.096 0.096 0.219 0.143 0.371 0.143h1.813c0.151 0 0.272-0.047 0.366-0.143 0.095-0.095 0.141-0.218 0.141-0.368V39.618zM96.998 37.835c0-0.346-0.174-0.52-0.521-0.52h-1.537c-0.345 0-0.517 0.174-0.517 0.52v3.441c0 0.346 0.172 0.52 0.517 0.52h1.537c0.348 0 0.521-0.174 0.521-0.52V37.835zM96.385 41.256h-1.35v-3.401h1.35V41.256zM98.637 34.588h-0.604v7.208h0.604V34.588zM102.243 37.316h-0.603v3.896l-1.359 0.038v-3.934h-0.604v4.011c0 0.332 0.166 0.498 0.498 0.498 0.192 0 0.437-0.019 0.732-0.056 0.242-0.03 0.486-0.063 0.732-0.096v0.123h0.603V37.316zM104.855 41.257h-0.783v-3.402h0.783v-0.539h-0.783v-1.396h-0.605v1.396h-0.537v0.539h0.537v3.421c0 0.347 0.174 0.521 0.518 0.521h0.871V41.257zM106.287 35.562h-0.622v0.771h0.622V35.562zM106.277 37.316h-0.604v4.48h0.604V37.316zM109.894 37.835c0-0.346-0.173-0.52-0.521-0.52h-1.538c-0.343 0-0.515 0.174-0.515 0.52v3.441c0 0.346 0.172 0.52 0.515 0.52h1.538c0.348 0 0.521-0.174 0.521-0.52V37.835zM109.281 41.256h-1.352v-3.401h1.352V41.256zM113.468 37.79c0-0.334-0.169-0.502-0.511-0.502 -0.19 0-0.434 0.019-0.729 0.056 -0.242 0.034-0.484 0.066-0.722 0.098v-0.125h-0.614v4.48h0.614V37.9l1.349-0.037v3.934h0.612V37.79zM116.873 40.429c0-0.206-0.076-0.368-0.227-0.488l-1.617-1.312v-0.783h1.24v0.885h0.592v-0.895c0-0.346-0.174-0.52-0.52-0.52h-1.387c-0.348 0-0.52 0.174-0.52 0.52v0.748c0 0.194 0.078 0.354 0.23 0.478l1.604 1.313v0.893h-1.24v-1.01h-0.604v1.019c0 0.347 0.174 0.522 0.52 0.522h1.406c0.347 0 0.521-0.176 0.521-0.522V40.429z"></path><path fill="#FFFFFF" d="M111.577 1.916c-0.524 0.103-1.035-0.239-1.134-0.766 -0.102-0.526 0.24-1.03 0.762-1.131 0.521-0.103 1.032 0.237 1.137 0.759C112.443 1.305 112.105 1.811 111.577 1.916M114.353 2.748c0.508-0.023 0.896-0.451 0.875-0.958 -0.026-0.505-0.458-0.896-0.958-0.872 -0.508 0.024-0.895 0.454-0.874 0.959C113.424 2.382 113.847 2.772 114.353 2.748M116.891 3.928c0.479 0.046 0.895-0.303 0.943-0.774 0.045-0.476-0.299-0.897-0.777-0.944 -0.469-0.044-0.895 0.304-0.939 0.775C116.072 3.459 116.416 3.882 116.891 3.928M119.173 5.415c0.437 0.104 0.875-0.162 0.981-0.595 0.103-0.433-0.164-0.871-0.595-0.977 -0.44-0.107-0.872 0.157-0.977 0.593C118.477 4.872 118.744 5.31 119.173 5.415M121.189 7.167c0.389 0.153 0.831-0.031 0.984-0.426 0.152-0.387-0.037-0.828-0.428-0.977 -0.384-0.157-0.824 0.034-0.979 0.418C120.614 6.574 120.801 7.013 121.189 7.167M122.916 9.147c0.344 0.195 0.771 0.075 0.962-0.266 0.188-0.338 0.072-0.771-0.263-0.96 -0.344-0.191-0.768-0.07-0.961 0.268C122.46 8.528 122.578 8.957 122.916 9.147M124.345 11.312c0.286 0.223 0.696 0.163 0.912-0.123 0.217-0.287 0.162-0.692-0.122-0.913 -0.289-0.217-0.695-0.165-0.911 0.123C124.003 10.684 124.059 11.095 124.345 11.312M125.449 13.619c0.232 0.238 0.611 0.241 0.845 0.007 0.236-0.235 0.236-0.613 0.005-0.845 -0.238-0.237-0.611-0.24-0.85-0.005C125.213 13.006 125.213 13.389 125.449 13.619M126.212 16.031c0.178 0.242 0.521 0.294 0.763 0.112 0.24-0.181 0.291-0.523 0.112-0.76 -0.181-0.247-0.521-0.297-0.763-0.116C126.084 15.445 126.033 15.787 126.212 16.031M126.617 18.496c0.132 0.241 0.43 0.33 0.667 0.205 0.24-0.133 0.33-0.431 0.205-0.668 -0.13-0.245-0.427-0.332-0.67-0.207C126.578 17.958 126.488 18.257 126.617 18.496M126.65 20.98c0.082 0.231 0.332 0.351 0.562 0.27 0.225-0.082 0.352-0.332 0.27-0.561 -0.08-0.231-0.332-0.351-0.564-0.271C126.689 20.502 126.568 20.749 126.65 20.98M126.287 23.439c0.038 0.213 0.243 0.353 0.453 0.314 0.212-0.039 0.352-0.241 0.316-0.449 -0.039-0.215-0.237-0.351-0.449-0.317C126.391 23.026 126.252 23.23 126.287 23.439M125.522 25.827c0 0.189 0.149 0.337 0.335 0.341 0.184-0.006 0.334-0.154 0.334-0.341 0-0.186-0.15-0.336-0.336-0.329C125.664 25.496 125.516 25.644 125.522 25.827M110.344 5.204c0.451-0.087 0.746-0.522 0.658-0.976 -0.088-0.452-0.525-0.748-0.977-0.657 -0.455 0.087-0.746 0.526-0.656 0.977C109.451 5.002 109.891 5.296 110.344 5.204M112.738 5.922c0.434-0.018 0.771-0.387 0.75-0.822 -0.018-0.433-0.391-0.773-0.826-0.747 -0.435 0.012-0.767 0.386-0.746 0.822C111.934 5.608 112.305 5.944 112.738 5.922M114.921 6.94c0.412 0.044 0.771-0.259 0.812-0.666 0.045-0.41-0.259-0.772-0.666-0.813 -0.406-0.042-0.773 0.26-0.809 0.669C114.216 6.536 114.515 6.9 114.921 6.94M116.887 8.221c0.379 0.092 0.756-0.138 0.842-0.514 0.096-0.374-0.131-0.752-0.508-0.841 -0.371-0.09-0.752 0.138-0.846 0.512C116.289 7.753 116.52 8.131 116.887 8.221M118.627 9.73c0.334 0.136 0.713-0.029 0.848-0.363 0.131-0.336-0.035-0.715-0.369-0.847 -0.332-0.131-0.711 0.032-0.846 0.362C118.125 9.218 118.291 9.6 118.627 9.73M120.113 11.435c0.294 0.166 0.66 0.071 0.826-0.228 0.167-0.29 0.066-0.66-0.223-0.827 -0.293-0.166-0.662-0.062-0.836 0.232C119.717 10.902 119.825 11.271 120.113 11.435M121.338 13.305c0.254 0.188 0.598 0.14 0.791-0.112 0.188-0.24 0.139-0.594-0.104-0.781 -0.25-0.192-0.602-0.141-0.789 0.103C121.051 12.761 121.092 13.116 121.338 13.305M122.292 15.293c0.2 0.199 0.526 0.202 0.728 0 0.205-0.204 0.205-0.528 0.01-0.726 -0.201-0.207-0.531-0.203-0.733-0.005C122.092 14.761 122.092 15.088 122.292 15.293M122.951 17.364c0.152 0.212 0.447 0.252 0.66 0.1 0.203-0.156 0.246-0.451 0.093-0.659 -0.155-0.211-0.444-0.251-0.653-0.095C122.84 16.862 122.799 17.161 122.951 17.364M123.296 19.49c0.115 0.211 0.37 0.286 0.576 0.175 0.21-0.112 0.288-0.369 0.178-0.572 -0.112-0.212-0.366-0.288-0.573-0.18C123.268 19.028 123.188 19.283 123.296 19.49M123.326 21.628c0.074 0.203 0.289 0.303 0.486 0.234 0.195-0.072 0.301-0.285 0.234-0.48 -0.07-0.204-0.285-0.306-0.484-0.237C123.367 21.219 123.262 21.433 123.326 21.628M123.02 23.746c0.029 0.184 0.205 0.305 0.393 0.27 0.174-0.029 0.295-0.203 0.264-0.387 -0.035-0.182-0.205-0.303-0.385-0.269C123.107 23.392 122.986 23.565 123.02 23.746M109.501 8.696c0.397-0.077 0.651-0.458 0.575-0.855 -0.077-0.392-0.458-0.648-0.852-0.573 -0.395 0.078-0.656 0.46-0.574 0.856C108.727 8.514 109.107 8.773 109.501 8.696M111.588 9.322c0.382-0.016 0.676-0.336 0.658-0.721 -0.02-0.379-0.344-0.669-0.719-0.654 -0.381 0.021-0.672 0.338-0.657 0.721C110.893 9.045 111.213 9.34 111.588 9.322M113.5 10.21c0.355 0.03 0.673-0.229 0.706-0.582 0.035-0.359-0.228-0.673-0.582-0.709 -0.353-0.037-0.676 0.226-0.708 0.58C112.879 9.857 113.141 10.174 113.5 10.21M115.217 11.325c0.323 0.084 0.654-0.119 0.73-0.445 0.082-0.327-0.121-0.657-0.443-0.736 -0.33-0.078-0.656 0.118-0.736 0.449C114.688 10.92 114.891 11.247 115.217 11.325M116.729 12.643c0.291 0.117 0.618-0.027 0.739-0.318 0.115-0.292-0.031-0.621-0.322-0.739 -0.29-0.115-0.622 0.023-0.736 0.323C116.293 12.199 116.438 12.526 116.729 12.643M118.029 14.133c0.254 0.144 0.575 0.055 0.717-0.201 0.141-0.254 0.055-0.577-0.197-0.718 -0.252-0.146-0.578-0.059-0.722 0.195C117.685 13.665 117.774 13.989 118.029 14.133M119.098 15.76c0.216 0.165 0.518 0.123 0.689-0.094 0.162-0.216 0.119-0.521-0.095-0.684 -0.216-0.164-0.52-0.123-0.685 0.092C118.842 15.286 118.883 15.599 119.098 15.76M119.927 17.494c0.172 0.178 0.46 0.18 0.64 0.006 0.176-0.18 0.176-0.463 0-0.64 -0.175-0.177-0.459-0.177-0.634-0.003C119.757 17.035 119.757 17.32 119.927 17.494M120.5 19.307c0.139 0.18 0.391 0.22 0.576 0.085 0.18-0.138 0.221-0.393 0.088-0.576 -0.139-0.181-0.396-0.22-0.58-0.084C120.404 18.867 120.369 19.128 120.5 19.307M120.432 21.602c0.093 0.183 0.316 0.252 0.496 0.154 0.186-0.1 0.251-0.319 0.156-0.5 -0.101-0.186-0.322-0.255-0.504-0.157C120.401 21.196 120.33 21.422 120.432 21.602M23.701 7.465c-1.684-4.698-5.466-7.05-11.346-7.05 -3.319 0-5.95 0.912-7.891 2.745C2.525 4.988 1.559 7.237 1.559 9.904c0 2.635 0.811 4.637 2.435 6.007 1.623 1.369 4.343 2.449 8.161 3.243 2.045 0.42 3.426 0.877 4.146 1.365 0.715 0.479 1.069 1.159 1.069 2.04 0 0.863-0.392 1.605-1.18 2.226 -0.787 0.626-1.985 0.938-3.595 0.938 -3.334 0-5.364-1.4-6.097-4.196L0 22.998c0.688 2.754 2.111 4.826 4.268 6.228 2.156 1.399 4.771 2.099 7.845 2.099 4.099 0 7.19-0.988 9.274-2.964 2.086-1.978 3.127-4.319 3.127-7.029 0-1.729-0.485-3.294-1.455-4.69 -0.977-1.4-2.172-2.415-3.59-3.042 -1.422-0.628-3.653-1.252-6.713-1.872 -1.828-0.365-2.998-0.798-3.521-1.294C8.719 9.936 8.457 9.328 8.457 8.61c0-1.805 1.385-2.701 4.162-2.701 2.602 0 4.305 1.184 5.107 3.554L23.701 7.465M37.258 13.133c-2.137 0-3.9 0.4-5.305 1.195 -1.396 0.794-2.498 1.838-3.297 3.139 -0.801 1.294-1.201 2.871-1.201 4.726 0 2.676 0.889 4.867 2.66 6.572 1.775 1.707 4.145 2.558 7.105 2.558 3.055 0 5.506-0.858 7.348-2.587 1.844-1.719 2.768-3.873 2.768-6.455 0-2.615-0.891-4.797-2.664-6.536C42.898 14.003 40.426 13.133 37.258 13.133M37.426 16.504c1.162 0 2.025 0.413 2.598 1.229 0.564 0.819 0.848 2.372 0.848 4.667 0 2.155-0.322 3.616-0.965 4.384s-1.48 1.15-2.523 1.15c-1.191 0-2.064-0.45-2.627-1.349 -0.561-0.897-0.838-2.381-0.838-4.443 0-2.246 0.291-3.75 0.883-4.503C35.387 16.883 36.264 16.504 37.426 16.504M51.205 31.324h6.375V6.778h-6.375V31.324zM74.932 24.117c-0.371 2.014-1.502 3.023-3.396 3.023 -0.973 0-1.8-0.301-2.479-0.897 -0.68-0.601-1.016-2.013-1.016-4.237 0-3.344 1.213-5.017 3.637-5.017 1.978 0 3.062 1.048 3.254 3.147l5.721-0.277c-0.178-1.924-1.102-3.524-2.768-4.804 -1.668-1.28-3.77-1.923-6.307-1.923 -3.156 0-5.677 0.852-7.564 2.55 -1.887 1.703-2.83 3.916-2.83 6.653 0 2.729 0.923 4.91 2.77 6.541 1.846 1.633 4.237 2.447 7.172 2.447 2.701 0 4.908-0.633 6.618-1.909 1.704-1.276 2.677-2.944 2.909-5.009L74.932 24.117zM90.027 24.059c0-1.448 0.225-2.602 0.672-3.457 0.449-0.857 1.027-1.445 1.732-1.775 0.711-0.331 1.705-0.496 2.98-0.496v-5.195c-0.451-0.037-0.686-0.072-1.135-0.054 -2.275 0.096-3.715 0.303-4.6 2.778l0.012-2.391h-5.744v17.854h6.082V24.059zM117.244 23.095c0-3.472-0.957-5.997-2.871-7.582 -1.911-1.587-4.21-2.38-6.881-2.38 -2.969 0-5.393 0.852-7.279 2.561 -1.888 1.708-2.83 3.95-2.83 6.724 0 1.869 0.469 3.474 1.408 4.807 0.944 1.34 2.135 2.356 3.583 3.054 1.447 0.696 3.211 1.045 5.281 1.045 4.748 0 7.892-2.018 9.446-6.051l-5.56-0.347c-0.411 1.833-1.64 2.747-3.685 2.747 -1.096 0-2.038-0.316-2.825-0.947 -0.79-0.635-1.185-1.574-1.185-2.82 0-0.232 0.004-0.502 0.02-0.811H117.244M103.62 19.715c0.276-2.396 1.793-3.21 4.099-3.21 2.147 0 3.098 0.814 3.289 3.21H103.62"></path></svg>