<?xml version="1.0" encoding="UTF-8" standalone="no"?>
<svg
   xmlns:dc="http://purl.org/dc/elements/1.1/"
   xmlns:cc="http://creativecommons.org/ns#"
   xmlns:rdf="http://www.w3.org/1999/02/22-rdf-syntax-ns#"
   xmlns:svg="http://www.w3.org/2000/svg"
   xmlns="http://www.w3.org/2000/svg"
   xmlns:sodipodi="http://sodipodi.sourceforge.net/DTD/sodipodi-0.dtd"
   xmlns:inkscape="http://www.inkscape.org/namespaces/inkscape"
   version="1.1"
   id="svg2"
   xml:space="preserve"
   width="172"
   height="46.666668"
   viewBox="0 0 172 46.666668"
   sodipodi:docname="logo-suitedb-vectorizado-original.eps"><metadata
     id="metadata8"><rdf:RDF><cc:Work
         rdf:about=""><dc:format>image/svg+xml</dc:format><dc:type
           rdf:resource="http://purl.org/dc/dcmitype/StillImage" /></cc:Work></rdf:RDF></metadata><defs
     id="defs6" /><sodipodi:namedview
     pagecolor="#ffffff"
     bordercolor="#666666"
     borderopacity="1"
     objecttolerance="10"
     gridtolerance="10"
     guidetolerance="10"
     inkscape:pageopacity="0"
     inkscape:pageshadow="2"
     inkscape:window-width="640"
     inkscape:window-height="480"
     id="namedview4" /><g
     id="g10"
     inkscape:groupmode="layer"
     inkscape:label="ink_ext_XXXXXX"
     transform="matrix(1.3333333,0,0,-1.3333333,0,46.666667)"><g
       id="g12"
       transform="scale(0.1)"><path
         d="M 161.25,340.121 V 9.83984 L 40.0781,42.3008 9.57031,340.121 Z"
         style="fill:#034978;fill-opacity:1;fill-rule:nonzero;stroke:none"
         id="path14" /><path
         d="M 161.25,340.121 V 9.83984 L 282.422,42.3008 312.93,340.121 Z"
         style="fill:#bacbdd;fill-opacity:1;fill-rule:nonzero;stroke:none"
         id="path16" /><path
         d="m 436.051,65.1602 v 23.75 c -5.852,-8.4414 -13.512,-15.1211 -22.961,-20 -9.379,-4.8907 -19.301,-7.3516 -29.692,-7.3516 -10.738,0 -20.308,2.3516 -28.75,7.0312 -8.437,4.6915 -14.609,11.25 -18.437,19.6915 -3.75,8.5195 -5.621,20.2387 -5.621,35.1597 V 223.91 h 42.031 v -72.969 c 0,-22.312 0.777,-36.019 2.34,-41.101 1.559,-5 4.379,-8.981 8.437,-11.8712 4.063,-2.9297 9.223,-4.379 15.473,-4.379 7.18,0 13.59,1.9219 19.219,5.7813 5.699,3.9489 9.609,8.8279 11.711,14.6879 2.187,5.82 3.289,20.16 3.289,42.972 v 66.879 h 41.871 V 65.1602 Z"
         style="fill:#c0cfe0;fill-opacity:1;fill-rule:nonzero;stroke:none"
         id="path18" /><path
         d="m 518.711,284.371 h 42.0273 V 245.4687 H 518.711 Z m 0,-60.461 h 42.0273 V 65.16 H 518.711 Z"
         style="fill:#c0cfe0;fill-opacity:1;fill-rule:nonzero;stroke:none"
         id="path20" /><path
         d="m 676.449,223.91 v -33.441 h -28.75 V 126.41 c 0,-12.93 0.231,-20.469 0.781,-22.66 0.622,-2.109 1.872,-3.8711 3.75,-5.3086 1.95,-1.3711 4.372,-2.0312 7.18,-2.0312 3.828,0 9.461,1.3203 16.879,4.0588 l 3.59,-32.6604 c -9.801,-4.1367 -20.899,-6.25 -33.277,-6.25 -7.5,0 -14.332,1.25 -20.473,3.75 -6.051,2.582 -10.539,5.8633 -13.43,9.8516 -2.82,4.0586 -4.769,9.5312 -5.789,16.3984 -0.93,4.8906 -1.398,14.7694 -1.398,29.6914 v 69.219 h -19.223 v 33.441 h 19.223 v 31.559 L 647.699,280 v -56.09 z"
         style="fill:#c0cfe0;fill-opacity:1;fill-rule:nonzero;stroke:none"
         id="path22" /><path
         d="m 797.77,115.621 41.878,-7.031 C 834.34,93.2813 825.82,81.6016 814.18,73.5898 802.621,65.5508 788.09,61.5586 770.59,61.5586 c -27.621,0 -48.051,8.9922 -61.25,27.0312 -10.551,14.4612 -15.789,32.7382 -15.789,54.8512 0,26.25 6.879,46.789 20.629,61.719 13.75,14.879 31.129,22.34 52.191,22.34 23.629,0 42.258,-7.809 55.93,-23.441 13.64,-15.539 20.199,-39.368 19.687,-71.559 H 736.68 c 0.308,-12.5 3.672,-22.27 10.16,-29.219 6.441,-6.8708 14.531,-10.3122 24.211,-10.3122 6.57,0 12.078,1.7617 16.57,5.3125 4.449,3.6287 7.848,9.4177 10.149,17.3397 z m 2.5,42.5 c -0.309,12.188 -3.508,21.449 -9.532,27.82 -5.937,6.329 -13.199,9.528 -21.718,9.528 -9.18,0 -16.79,-3.399 -22.809,-10.16 -5.941,-6.68 -8.871,-15.739 -8.75,-27.188 z"
         style="fill:#c0cfe0;fill-opacity:1;fill-rule:nonzero;stroke:none"
         id="path24" /><path
         d="m 72.1914,136.871 42.9686,4.07 c 2.57,-14.382 7.852,-25 15.781,-31.882 7.887,-6.789 18.629,-10.1488 32.188,-10.1488 14.25,0 25,2.9998 32.18,9.0588 7.191,6.011 10.781,13.121 10.781,21.25 0,5.082 -1.52,9.453 -4.531,13.121 -3.039,3.64 -8.36,6.801 -15.93,9.531 -5.238,1.758 -17.039,4.93 -35.469,9.539 -23.68,5.93 -40.281,13.16 -49.851,21.711 -13.4301,12.078 -20.1488,26.801 -20.1488,44.219 0,11.14 3.1211,21.57 9.3711,31.25 6.3281,9.691 15.4687,17.07 27.3477,22.191 11.949,5.078 26.402,7.66 43.281,7.66 27.5,0 48.16,-6.062 62.031,-18.132 13.938,-12.11 21.25,-28.2 21.868,-48.278 L 199.84,220.16 c -1.871,11.25 -5.93,19.289 -12.18,24.211 -6.25,4.891 -15.59,7.348 -27.969,7.348 -12.929,0 -23.05,-2.617 -30.312,-7.809 -4.688,-3.441 -7.039,-7.969 -7.039,-13.601 0,-5.231 2.191,-9.688 6.57,-13.438 5.621,-4.68 19.219,-9.601 40.781,-14.68 21.559,-5 37.5,-10.242 47.809,-15.632 10.309,-5.43 18.359,-12.887 24.219,-22.34 5.82,-9.379 8.75,-21.02 8.75,-34.848 0,-12.609 -3.52,-24.371 -10.469,-35.3124 -6.988,-10.9375 -16.871,-19.1367 -29.691,-24.5273 -12.731,-5.3125 -28.59,-7.9727 -47.649,-7.9727 -27.738,0 -49.031,6.4102 -63.91,19.2227 C 83.9492,93.5898 75.0781,112.27 72.1914,136.871 Z"
         style="fill:#fdfefe;fill-opacity:1;fill-rule:nonzero;stroke:none"
         id="path26" /><path
         d="m 876.449,284.488 h 80.781 c 18.321,0 32.219,-1.398 41.719,-4.218 12.891,-3.75 23.941,-10.469 33.121,-20.149 9.14,-9.691 16.13,-21.57 20.94,-35.633 4.76,-13.976 7.19,-31.207 7.19,-51.718 0,-18.04 -2.27,-33.551 -6.72,-46.559 -5.55,-16.051 -13.36,-28.9805 -23.44,-38.7501 -7.74,-7.5 -18.13,-13.3593 -31.251,-17.5 -9.687,-3.1211 -22.738,-4.6914 -39.059,-4.6914 H 876.449 Z M 920.66,247.461 V 102.148 h 32.969 c 12.391,0 21.332,0.704 26.883,2.192 7.187,1.75 13.117,4.762 17.808,9.058 4.77,4.262 8.63,11.293 11.56,21.09 3.01,9.883 4.53,23.321 4.53,40.313 0,16.879 -1.52,29.847 -4.53,38.91 -2.93,9.059 -7.11,16.129 -12.501,21.25 -5.43,5.078 -12.258,8.519 -20.469,10.309 -6.25,1.449 -18.39,2.191 -36.398,2.191 z"
         style="fill:#035083;fill-opacity:1;fill-rule:nonzero;stroke:none"
         id="path28" /><path
         d="m 1098.05,284.488 h 87.5 c 17.38,0 30.35,-0.738 38.9,-2.187 8.52,-1.481 16.14,-4.492 22.82,-9.063 6.75,-4.609 12.38,-10.699 16.87,-18.277 4.45,-7.621 6.72,-16.172 6.72,-25.621 0,-10.32 -2.77,-19.77 -8.28,-28.289 -5.55,-8.551 -13.05,-14.961 -22.5,-19.211 13.32,-3.988 23.59,-10.629 30.78,-20 7.19,-9.379 10.78,-20.391 10.78,-32.969 0,-10 -2.34,-19.769 -7.03,-29.2226 -4.61,-9.3789 -10.9,-16.8789 -18.91,-22.5 -8.04,-5.6289 -17.93,-9.0586 -29.68,-10.3086 -7.43,-0.8593 -25.24,-1.371 -53.44,-1.5703 h -74.53 z m 44.22,-36.558 v -50.629 h 29.06 c 17.19,0 27.85,0.238 32.03,0.789 7.58,0.82 13.52,3.43 17.81,7.808 4.38,4.372 6.56,10.082 6.56,17.192 0,6.75 -1.87,12.219 -5.62,16.398 -3.75,4.262 -9.3,6.883 -16.56,7.813 -4.38,0.398 -17,0.629 -37.82,0.629 z m 0,-87.032 v -58.75 h 40.93 c 15.94,0 26.02,0.473 30.32,1.403 6.64,1.14 12.03,3.988 16.09,8.597 4.14,4.692 6.25,10.942 6.25,18.75 0,6.563 -1.64,12.114 -4.84,16.723 -3.13,4.57 -7.74,7.891 -13.75,10 -6.06,2.18 -19.14,3.277 -39.22,3.277 z"
         style="fill:#035083;fill-opacity:1;fill-rule:nonzero;stroke:none"
         id="path30" /></g></g></svg>
