<?xml version="1.0" encoding="UTF-8" standalone="no"?>
<svg
   xmlns:dc="http://purl.org/dc/elements/1.1/"
   xmlns:cc="http://creativecommons.org/ns#"
   xmlns:rdf="http://www.w3.org/1999/02/22-rdf-syntax-ns#"
   xmlns:svg="http://www.w3.org/2000/svg"
   xmlns="http://www.w3.org/2000/svg"
   xmlns:sodipodi="http://sodipodi.sourceforge.net/DTD/sodipodi-0.dtd"
   xmlns:inkscape="http://www.inkscape.org/namespaces/inkscape"
   inkscape:version="1.0 (4035a4fb49, 2020-05-01)"
   height="129.64453"
   width="129.93037"
   sodipodi:docname="icon-linkedin.svg"
   xml:space="preserve"
   viewBox="0 0 129.93037 129.64453"
   y="0px"
   x="0px"
   id="Layer_1"
   version="1.1"><metadata
   id="metadata41"><rdf:RDF><cc:Work
       rdf:about=""><dc:format>image/svg+xml</dc:format><dc:type
         rdf:resource="http://purl.org/dc/dcmitype/StillImage" /></cc:Work></rdf:RDF></metadata><defs
   id="defs39" /><sodipodi:namedview
   inkscape:current-layer="Layer_1"
   inkscape:window-maximized="1"
   inkscape:window-y="-8"
   inkscape:window-x="-8"
   inkscape:cy="29.883669"
   inkscape:cx="155"
   inkscape:zoom="2.3709677"
   showguides="true"
   showgrid="false"
   id="namedview37"
   inkscape:window-height="1017"
   inkscape:window-width="1920"
   inkscape:pageshadow="2"
   inkscape:pageopacity="0"
   guidetolerance="10"
   gridtolerance="10"
   objecttolerance="10"
   borderopacity="1"
   bordercolor="#666666"
   pagecolor="#ffffff" />
<g
   transform="matrix(0.41913025,0,0,0.41913025,0,-0.14292342)"
   style="fill:#ffffff;stroke-width:2.38589"
   id="XMLID_801_">
	<path
   style="fill:#ffffff;stroke-width:2.38589"
   d="M 72.16,99.73 H 9.927 c -2.762,0 -5,2.239 -5,5 v 199.928 c 0,2.762 2.238,5 5,5 H 72.16 c 2.762,0 5,-2.238 5,-5 V 104.73 c 0,-2.761 -2.238,-5 -5,-5 z"
   id="XMLID_802_" />
	<path
   style="fill:#ffffff;stroke-width:2.38589"
   d="M 41.066,0.341 C 18.422,0.341 0,18.743 0,41.362 0,63.991 18.422,82.4 41.066,82.4 63.692,82.4 82.099,63.99 82.099,41.362 82.1,18.743 63.692,0.341 41.066,0.341 Z"
   id="XMLID_803_" />
	<path
   style="fill:#ffffff;stroke-width:2.38589"
   d="m 230.454,94.761 c -24.995,0 -43.472,10.745 -54.679,22.954 V 104.73 c 0,-2.761 -2.238,-5 -5,-5 h -59.599 c -2.762,0 -5,2.239 -5,5 v 199.928 c 0,2.762 2.238,5 5,5 h 62.097 c 2.762,0 5,-2.238 5,-5 V 205.74 c 0,-33.333 9.054,-46.319 32.29,-46.319 25.306,0 27.317,20.818 27.317,48.034 v 97.204 c 0,2.762 2.238,5 5,5 H 305 c 2.762,0 5,-2.238 5,-5 V 194.995 C 310,145.43 300.549,94.761 230.454,94.761 Z"
   id="XMLID_804_" />
</g>
<g
   transform="translate(0,-180.01447)"
   id="g6">
</g>
<g
   transform="translate(0,-180.01447)"
   id="g8">
</g>
<g
   transform="translate(0,-180.01447)"
   id="g10">
</g>
<g
   transform="translate(0,-180.01447)"
   id="g12">
</g>
<g
   transform="translate(0,-180.01447)"
   id="g14">
</g>
<g
   transform="translate(0,-180.01447)"
   id="g16">
</g>
<g
   transform="translate(0,-180.01447)"
   id="g18">
</g>
<g
   transform="translate(0,-180.01447)"
   id="g20">
</g>
<g
   transform="translate(0,-180.01447)"
   id="g22">
</g>
<g
   transform="translate(0,-180.01447)"
   id="g24">
</g>
<g
   transform="translate(0,-180.01447)"
   id="g26">
</g>
<g
   transform="translate(0,-180.01447)"
   id="g28">
</g>
<g
   transform="translate(0,-180.01447)"
   id="g30">
</g>
<g
   transform="translate(0,-180.01447)"
   id="g32">
</g>
<g
   transform="translate(0,-180.01447)"
   id="g34">
</g>
</svg>
