<?xml version="1.0" encoding="UTF-8" standalone="no"?>
<!-- Created with Inkscape (http://www.inkscape.org/) -->

<svg
   xmlns:dc="http://purl.org/dc/elements/1.1/"
   xmlns:cc="http://creativecommons.org/ns#"
   xmlns:rdf="http://www.w3.org/1999/02/22-rdf-syntax-ns#"
   xmlns:svg="http://www.w3.org/2000/svg"
   xmlns="http://www.w3.org/2000/svg"
   xmlns:sodipodi="http://sodipodi.sourceforge.net/DTD/sodipodi-0.dtd"
   xmlns:inkscape="http://www.inkscape.org/namespaces/inkscape"
   width="93.965027mm"
   height="81.048996mm"
   viewBox="0 0 93.965027 81.048996"
   version="1.1"
   id="svg8"
   sodipodi:docname="logo-blanco.svg"
   inkscape:version="0.92.4 (5da689c313, 2019-01-14)">
  <defs
     id="defs2" />
  <sodipodi:namedview
     id="base"
     pagecolor="#ffffff"
     bordercolor="#666666"
     borderopacity="1.0"
     inkscape:pageopacity="0.0"
     inkscape:pageshadow="2"
     inkscape:zoom="0.5"
     inkscape:cx="312.67058"
     inkscape:cy="-46.034975"
     inkscape:document-units="mm"
     inkscape:current-layer="layer1"
     showgrid="false"
     showguides="true"
     inkscape:guide-bbox="true"
     inkscape:window-width="1920"
     inkscape:window-height="1137"
     inkscape:window-x="152"
     inkscape:window-y="-8"
     inkscape:window-maximized="1" />
  <metadata
     id="metadata5">
    <rdf:RDF>
      <cc:Work
         rdf:about="">
        <dc:format>image/svg+xml</dc:format>
        <dc:type
           rdf:resource="http://purl.org/dc/dcmitype/StillImage" />
        <dc:title></dc:title>
      </cc:Work>
    </rdf:RDF>
  </metadata>
  <g
     inkscape:label="Layer 1"
     inkscape:groupmode="layer"
     id="layer1"
     transform="translate(-60.351606,-162.66612)">
    <g
       transform="matrix(1.171722,0,0,1.171722,-686.63264,68.235491)"
       id="g1663"
       style="fill:#ffffff">
      <path
         inkscape:connector-curvature="0"
         id="path1635"
         style="font-style:normal;font-variant:normal;font-weight:normal;font-stretch:normal;font-size:10.58333302px;line-height:1.25;font-family:'Sitka Text';-inkscape-font-specification:'Sitka Text';letter-spacing:0px;word-spacing:0px;fill:#ffffff;fill-opacity:1;stroke:none;stroke-width:0.26458332"
         d="m 637.5099,141.04964 0.72437,-0.26341 q 0.0753,-0.0235 0.127,-0.0752 0.0517,-0.0565 0.0517,-0.15523 v -5.0894 q 0,-0.0988 -0.0517,-0.15052 -0.0517,-0.0517 -0.127,-0.0753 l -0.72437,-0.23989 v -0.34337 h 2.42241 l 1.57574,4.45441 0.23519,0.81844 h 0.0753 l 1.82033,-5.27285 h 2.38948 v 0.34337 l -0.71496,0.23989 q -0.0753,0.0235 -0.13171,0.08 -0.0564,0.0517 -0.0564,0.14582 v 5.11763 q 0,0.10348 0.0517,0.15522 0.0517,0.0517 0.13641,0.08 l 0.71496,0.23048 v 0.35278 h -2.78459 v -0.35278 l 0.71496,-0.23048 q 0.08,-0.0235 0.13171,-0.0753 0.0564,-0.0564 0.0564,-0.15992 v -5.41397 h -0.0894 l -0.22107,0.69615 -1.60397,4.49204 -0.44685,1.04422 h -0.47978 l -1.96144,-5.53156 -0.21637,-0.70085 h -0.0753 v 5.38574 q 0,0.10348 0.047,0.15523 0.0517,0.047 0.1317,0.0752 l 0.71026,0.26341 v 0.35278 h -2.43182 z" />
      <path
         inkscape:connector-curvature="0"
         id="path1637"
         style="font-style:normal;font-variant:normal;font-weight:normal;font-stretch:normal;font-size:10.58333302px;line-height:1.25;font-family:'Sitka Text';-inkscape-font-specification:'Sitka Text';letter-spacing:0px;word-spacing:0px;fill:#ffffff;fill-opacity:1;stroke:none;stroke-width:0.26458332"
         d="m 650.29771,140.64512 q -0.19755,0.27752 -0.42804,0.44686 -0.23048,0.16463 -0.46566,0.2587 -0.23519,0.0894 -0.46096,0.11759 -0.22108,0.0329 -0.40452,0.0329 -0.34337,0 -0.61148,-0.11759 -0.26812,-0.1223 -0.45626,-0.31515 -0.18345,-0.19756 -0.28693,-0.45156 -0.0988,-0.254 -0.0988,-0.53152 0,-0.32455 0.11289,-0.57385 0.11759,-0.254 0.30574,-0.44685 0.18815,-0.19285 0.43745,-0.32456 0.24929,-0.1364 0.5174,-0.22107 0.26811,-0.0847 0.54093,-0.1223 0.27281,-0.0376 0.5127,-0.0376 0.0517,0 0.15993,0.009 0.10818,0.005 0.22578,0.0188 0.12229,0.0141 0.22577,0.0282 0.10819,0.009 0.15523,0.0141 l 0.005,-0.69615 q 0,-0.26811 -0.0706,-0.44685 -0.0706,-0.17874 -0.19286,-0.28693 -0.12229,-0.10818 -0.29633,-0.15522 -0.17404,-0.047 -0.3857,-0.047 -0.23989,0 -0.48449,0.0847 -0.23988,0.0847 -0.46096,0.20696 -0.21637,0.1176 -0.40452,0.2493 -0.18814,0.127 -0.31514,0.21167 h -0.18815 l -0.0329,-0.91723 q 0.20226,-0.0752 0.40922,-0.15051 0.21167,-0.08 0.44686,-0.13641 0.23518,-0.0612 0.49859,-0.0988 0.26811,-0.0376 0.58796,-0.0376 0.34337,0 0.67263,0.0706 0.32926,0.0705 0.58326,0.254 0.2587,0.17874 0.41393,0.49389 0.15992,0.31514 0.15992,0.80433 l -0.009,2.61055 q 0,0.0894 0.0376,0.16463 0.0376,0.0706 0.0988,0.1223 0.0658,0.0517 0.14582,0.08 0.0847,0.0282 0.16463,0.0282 0.0517,0 0.10348,-0.009 0.0564,-0.0141 0.11759,-0.0329 0.0658,-0.0235 0.1223,-0.0517 0.0611,-0.0282 0.11759,-0.0517 h 0.0753 v 0.39511 q -0.0706,0.0517 -0.18815,0.1223 -0.11289,0.0705 -0.2493,0.13641 -0.1317,0.0611 -0.27281,0.10818 -0.13641,0.047 -0.2493,0.047 -0.22107,0 -0.3857,-0.0517 -0.16463,-0.0517 -0.27752,-0.15523 -0.10818,-0.10818 -0.16463,-0.26811 -0.0517,-0.15992 -0.0517,-0.381 z m -0.0188,-1.7827 q -0.48919,0 -0.89841,0.0423 -0.40452,0.0423 -0.69144,0.15993 -0.28693,0.11289 -0.44686,0.31985 -0.15522,0.20696 -0.15522,0.53152 0,0.26341 0.0847,0.44215 0.0847,0.17403 0.21637,0.27752 0.1317,0.10348 0.29163,0.14581 0.16463,0.0423 0.31985,0.0423 0.15522,0 0.33396,-0.0329 0.18345,-0.0329 0.35748,-0.0988 0.17404,-0.0659 0.32926,-0.16463 0.15523,-0.10348 0.25871,-0.24459 z" />
      <path
         inkscape:connector-curvature="0"
         id="path1639"
         style="font-style:normal;font-variant:normal;font-weight:normal;font-stretch:normal;font-size:10.58333302px;line-height:1.25;font-family:'Sitka Text';-inkscape-font-specification:'Sitka Text';letter-spacing:0px;word-spacing:0px;fill:#ffffff;fill-opacity:1;stroke:none;stroke-width:0.26458332"
         d="m 652.7102,141.05905 0.57855,-0.18815 q 0.08,-0.0235 0.13171,-0.0753 0.0564,-0.0564 0.0564,-0.15522 v -3.26437 q 0,-0.1223 -0.0706,-0.18815 -0.0706,-0.0706 -0.14582,-0.10348 l -0.58326,-0.24459 v -0.33397 l 1.66511,-0.2587 v 1.09596 h 0.047 q 0.21637,-0.30574 0.40452,-0.52211 0.19285,-0.21637 0.381,-0.35277 0.18815,-0.13641 0.37159,-0.19756 0.18815,-0.0611 0.3857,-0.0611 0.11289,0 0.23049,0.0141 0.11759,0.009 0.23048,0.0376 0.11289,0.0282 0.21637,0.0847 0.10818,0.0517 0.20226,0.1317 v 1.17122 h -0.57385 l -0.13641,-0.36218 q -0.0235,-0.0564 -0.08,-0.10348 -0.0517,-0.047 -0.127,-0.08 -0.0705,-0.0376 -0.15051,-0.0564 -0.08,-0.0188 -0.15993,-0.0188 -0.20226,0 -0.37159,0.0752 -0.16463,0.0706 -0.30574,0.18345 -0.14111,0.10818 -0.26341,0.2493 -0.1223,0.1364 -0.23048,0.26811 v 2.83633 q 0,0.0988 0.0517,0.15522 0.0517,0.0517 0.13641,0.0753 l 0.72907,0.18815 v 0.34337 H 652.71 Z" />
      <path
         inkscape:connector-curvature="0"
         id="path1641"
         style="font-style:normal;font-variant:normal;font-weight:normal;font-stretch:normal;font-size:10.58333302px;line-height:1.25;font-family:'Sitka Text';-inkscape-font-specification:'Sitka Text';letter-spacing:0px;word-spacing:0px;fill:#ffffff;fill-opacity:1;stroke:none;stroke-width:0.26458332"
         d="m 661.73453,140.14653 v 0.53622 q -0.16933,0.14111 -0.381,0.29163 -0.20696,0.14582 -0.45626,0.26811 -0.24459,0.1176 -0.52681,0.19286 -0.28223,0.0753 -0.60208,0.0753 -0.54092,0 -0.97367,-0.18815 -0.42803,-0.19285 -0.73377,-0.53152 -0.30104,-0.34337 -0.46567,-0.81374 -0.15993,-0.47037 -0.15993,-1.03011 0,-0.39982 0.10349,-0.7573 0.10348,-0.35748 0.28692,-0.65852 0.18345,-0.30574 0.43745,-0.54563 0.254,-0.24459 0.55033,-0.41392 0.30104,-0.17404 0.635,-0.26341 0.33396,-0.0894 0.68204,-0.0894 0.27751,0 0.50329,0.0423 0.22578,0.0423 0.39982,0.10819 0.17874,0.0611 0.31044,0.127 0.13171,0.0611 0.22108,0.10348 l -0.0329,0.95015 h -0.21167 q -0.18814,-0.10819 -0.36689,-0.23048 -0.17874,-0.1223 -0.37629,-0.22108 -0.19756,-0.10348 -0.42804,-0.16933 -0.22578,-0.0659 -0.5127,-0.0659 -0.0847,0 -0.18815,0.0235 -0.10348,0.0235 -0.21167,0.0659 -0.10348,0.0376 -0.19755,0.0988 -0.0894,0.0565 -0.15052,0.127 -0.0847,0.0847 -0.16463,0.20697 -0.0753,0.12229 -0.14111,0.30574 -0.0611,0.17874 -0.10348,0.44215 -0.0376,0.2587 -0.0376,0.62088 0,0.47978 0.10818,0.86078 0.10819,0.381 0.31515,0.64441 0.20696,0.2587 0.5127,0.39981 0.31045,0.13641 0.71967,0.13641 0.23989,0 0.45626,-0.0658 0.21637,-0.0659 0.40452,-0.16463 0.19285,-0.0988 0.35278,-0.21167 0.15992,-0.11288 0.28222,-0.20696 z" />
      <path
         inkscape:connector-curvature="0"
         id="path1643"
         style="font-style:normal;font-variant:normal;font-weight:normal;font-stretch:normal;font-size:10.58333302px;line-height:1.25;font-family:'Sitka Text';-inkscape-font-specification:'Sitka Text';letter-spacing:0px;word-spacing:0px;fill:#ffffff;fill-opacity:1;stroke:none;stroke-width:0.26458332"
         d="m 667.01519,140.17475 v 0.54093 q -0.17404,0.14111 -0.40922,0.28693 -0.23049,0.14111 -0.5033,0.254 -0.27281,0.11288 -0.57856,0.18344 -0.30574,0.0706 -0.62559,0.0706 -0.5127,0 -0.95955,-0.16934 -0.44215,-0.16933 -0.76671,-0.49859 -0.32455,-0.33396 -0.5127,-0.81845 -0.18345,-0.48918 -0.18345,-1.12418 0,-0.56444 0.17404,-1.05363 0.17874,-0.49389 0.49859,-0.85607 0.32456,-0.36689 0.77141,-0.57386 0.45156,-0.20696 0.99248,-0.20696 0.4986,0 0.889,0.16463 0.39511,0.15993 0.66793,0.43274 0.27281,0.27282 0.41392,0.63971 0.14582,0.36688 0.14582,0.7667 0,0.047 -0.005,0.11289 0,0.0659 -0.005,0.14111 -0.005,0.0705 -0.0141,0.14111 -0.009,0.0659 -0.0188,0.11289 h -3.53248 q 0,1.03481 0.46566,1.55692 0.46567,0.52212 1.31234,0.52212 0.27281,0 0.5174,-0.0611 0.2493,-0.0659 0.45626,-0.15993 0.21167,-0.0941 0.381,-0.20226 0.17404,-0.11289 0.29633,-0.20226 z m -0.98778,-1.94263 q 0,-0.34337 -0.0659,-0.62089 -0.0611,-0.28222 -0.20226,-0.47977 -0.13641,-0.19756 -0.36219,-0.30104 -0.22107,-0.10819 -0.54092,-0.10819 -0.28222,0 -0.52211,0.10349 -0.23519,0.0988 -0.41863,0.29633 -0.17874,0.19285 -0.29163,0.47507 -0.11289,0.27752 -0.14111,0.635 z" />
      <path
         inkscape:connector-curvature="0"
         id="path1645"
         style="font-style:normal;font-variant:normal;font-weight:normal;font-stretch:normal;font-size:10.58333302px;line-height:1.25;font-family:'Sitka Text';-inkscape-font-specification:'Sitka Text';letter-spacing:0px;word-spacing:0px;fill:#ffffff;fill-opacity:1;stroke:none;stroke-width:0.26458332"
         d="m 667.84934,141.05905 0.71026,-0.18815 q 0.08,-0.0235 0.13171,-0.0753 0.0564,-0.0564 0.0564,-0.15522 v -5.57859 q 0,-0.10348 -0.0611,-0.15993 -0.0611,-0.0564 -0.14581,-0.0894 l -0.72437,-0.26811 v -0.33396 l 1.86737,-0.0847 v 6.51463 q 0,0.0988 0.0564,0.15522 0.0611,0.0565 0.13641,0.0753 l 0.68674,0.18815 v 0.34337 h -2.71404 z" />
      <path
         inkscape:connector-curvature="0"
         id="path1647"
         style="font-style:normal;font-variant:normal;font-weight:normal;font-stretch:normal;font-size:10.58333302px;line-height:1.25;font-family:'Sitka Text';-inkscape-font-specification:'Sitka Text';letter-spacing:0px;word-spacing:0px;fill:#ffffff;fill-opacity:1;stroke:none;stroke-width:0.26458332"
         d="m 673.79727,141.52001 q -0.55034,0 -1.00189,-0.18344 -0.45156,-0.18345 -0.77141,-0.52211 -0.31985,-0.34337 -0.49859,-0.83256 -0.17404,-0.49389 -0.17404,-1.10537 0,-0.56444 0.17404,-1.04892 0.17403,-0.48919 0.49389,-0.84667 0.32455,-0.36219 0.78552,-0.56445 0.46096,-0.20696 1.03951,-0.20696 0.62089,0 1.08186,0.21637 0.46096,0.21637 0.762,0.57856 0.30103,0.36218 0.45155,0.84666 0.15052,0.47978 0.15052,1.0066 0,0.55974 -0.17404,1.04892 -0.17403,0.48448 -0.49859,0.84667 -0.31985,0.35748 -0.78081,0.56444 -0.46097,0.20226 -1.03952,0.20226 z m 0.0658,-0.5127 q 0.40922,0 0.67733,-0.19285 0.26811,-0.19285 0.42334,-0.48919 0.15992,-0.30104 0.22577,-0.66322 0.0658,-0.36219 0.0658,-0.70556 0,-0.41863 -0.08,-0.81844 -0.08,-0.40452 -0.2587,-0.71496 -0.17404,-0.31515 -0.45626,-0.508 -0.28222,-0.19286 -0.68674,-0.19286 -0.27282,0 -0.47978,0.0894 -0.20226,0.0847 -0.35748,0.23988 -0.15522,0.15052 -0.26341,0.35278 -0.10348,0.19756 -0.16933,0.42334 -0.0658,0.22107 -0.0941,0.46096 -0.0282,0.23989 -0.0282,0.46566 0,0.254 0.0282,0.52212 0.0329,0.2634 0.10349,0.5127 0.0706,0.2493 0.18344,0.47037 0.11289,0.22107 0.27752,0.39041 0.16463,0.16463 0.3857,0.2634 0.22108,0.0941 0.5033,0.0941 z" />
      <path
         inkscape:connector-curvature="0"
         id="path1649"
         style="font-style:normal;font-variant:normal;font-weight:normal;font-stretch:normal;font-size:10.58333302px;line-height:1.25;font-family:'Sitka Text';-inkscape-font-specification:'Sitka Text';letter-spacing:0px;word-spacing:0px;fill:#ffffff;fill-opacity:1;stroke:none;stroke-width:0.26458332"
         d="m 680.31866,141.04964 0.72437,-0.23048 q 0.0705,-0.0235 0.12229,-0.0753 0.0565,-0.0564 0.0565,-0.15992 v -5.11763 q 0,-0.0988 -0.0517,-0.15052 -0.0517,-0.0517 -0.127,-0.0753 l -0.72437,-0.23989 v -0.34337 h 2.80341 v 0.34337 l -0.72908,0.23989 q -0.0753,0.0188 -0.1317,0.0753 -0.0517,0.0564 -0.0517,0.15052 v 5.36222 h 2.42711 q 0.0376,0 0.0706,-0.0141 0.0376,-0.0141 0.0611,-0.0376 0.0282,-0.0282 0.047,-0.0658 0.0188,-0.0376 0.0282,-0.08 l 0.20696,-1.38289 h 0.56915 v 2.1543 h -5.30107 z" />
      <path
         inkscape:connector-curvature="0"
         id="path1651"
         style="font-style:normal;font-variant:normal;font-weight:normal;font-stretch:normal;font-size:10.58333302px;line-height:1.25;font-family:'Sitka Text';-inkscape-font-specification:'Sitka Text';letter-spacing:0px;word-spacing:0px;fill:#ffffff;fill-opacity:1;stroke:none;stroke-width:0.26458332"
         d="m 689.67515,140.64512 q -0.19755,0.27752 -0.42804,0.44686 -0.23048,0.16463 -0.46566,0.2587 -0.23519,0.0894 -0.46097,0.11759 -0.22107,0.0329 -0.40451,0.0329 -0.34337,0 -0.61149,-0.11759 -0.26811,-0.1223 -0.45625,-0.31515 -0.18345,-0.19756 -0.28693,-0.45156 -0.0988,-0.254 -0.0988,-0.53152 0,-0.32455 0.11289,-0.57385 0.11759,-0.254 0.30574,-0.44685 0.18815,-0.19285 0.43745,-0.32456 0.24929,-0.1364 0.5174,-0.22107 0.26811,-0.0847 0.54093,-0.1223 0.27281,-0.0376 0.5127,-0.0376 0.0517,0 0.15993,0.009 0.10818,0.005 0.22578,0.0188 0.12229,0.0141 0.22577,0.0282 0.10819,0.009 0.15523,0.0141 l 0.005,-0.69615 q 0,-0.26811 -0.0706,-0.44685 -0.0705,-0.17874 -0.19285,-0.28693 -0.12229,-0.10818 -0.29633,-0.15522 -0.17404,-0.047 -0.3857,-0.047 -0.23989,0 -0.48449,0.0847 -0.23988,0.0847 -0.46096,0.20696 -0.21637,0.1176 -0.40452,0.2493 -0.18815,0.127 -0.31515,0.21167 h -0.18814 l -0.0329,-0.91723 q 0.20226,-0.0752 0.40922,-0.15051 0.21167,-0.08 0.44685,-0.13641 0.23519,-0.0612 0.4986,-0.0988 0.26811,-0.0376 0.58796,-0.0376 0.34337,0 0.67263,0.0706 0.32926,0.0705 0.58326,0.254 0.2587,0.17874 0.41393,0.49389 0.15992,0.31514 0.15992,0.80433 l -0.009,2.61055 q 0,0.0894 0.0376,0.16463 0.0376,0.0706 0.0988,0.1223 0.0658,0.0517 0.14582,0.08 0.0847,0.0282 0.16463,0.0282 0.0517,0 0.10348,-0.009 0.0564,-0.0141 0.11759,-0.0329 0.0658,-0.0235 0.1223,-0.0517 0.0611,-0.0282 0.11759,-0.0517 h 0.0753 v 0.39511 q -0.0706,0.0517 -0.18815,0.1223 -0.11289,0.0705 -0.2493,0.13641 -0.1317,0.0611 -0.27281,0.10818 -0.13641,0.047 -0.2493,0.047 -0.22107,0 -0.3857,-0.0517 -0.16463,-0.0517 -0.27752,-0.15523 -0.10819,-0.10818 -0.16463,-0.26811 -0.0517,-0.15992 -0.0517,-0.381 z m -0.0188,-1.7827 q -0.48919,0 -0.89841,0.0423 -0.40452,0.0423 -0.69145,0.15993 -0.28692,0.11289 -0.44685,0.31985 -0.15522,0.20696 -0.15522,0.53152 0,0.26341 0.0847,0.44215 0.0847,0.17403 0.21637,0.27752 0.1317,0.10348 0.29163,0.14581 0.16463,0.0423 0.31985,0.0423 0.15522,0 0.33396,-0.0329 0.18345,-0.0329 0.35748,-0.0988 0.17404,-0.0659 0.32926,-0.16463 0.15523,-0.10348 0.25871,-0.24459 z" />
      <path
         inkscape:connector-curvature="0"
         id="path1653"
         style="font-style:normal;font-variant:normal;font-weight:normal;font-stretch:normal;font-size:10.58333302px;line-height:1.25;font-family:'Sitka Text';-inkscape-font-specification:'Sitka Text';letter-spacing:0px;word-spacing:0px;fill:#ffffff;fill-opacity:1;stroke:none;stroke-width:0.26458332"
         d="m 692.08764,141.05905 0.57855,-0.18815 q 0.08,-0.0235 0.13171,-0.0753 0.0564,-0.0564 0.0564,-0.15522 v -3.26437 q 0,-0.1223 -0.0706,-0.18815 -0.0706,-0.0706 -0.14582,-0.10348 l -0.58326,-0.24459 v -0.33397 l 1.66511,-0.2587 v 1.09596 h 0.047 q 0.21637,-0.30574 0.40452,-0.52211 0.19285,-0.21637 0.381,-0.35277 0.18815,-0.13641 0.37159,-0.19756 0.18815,-0.0611 0.3857,-0.0611 0.11289,0 0.23049,0.0141 0.11759,0.009 0.23048,0.0376 0.11289,0.0282 0.21637,0.0847 0.10818,0.0517 0.20226,0.1317 v 1.17122 h -0.57386 l -0.1364,-0.36218 q -0.0235,-0.0564 -0.08,-0.10348 -0.0517,-0.047 -0.127,-0.08 -0.0705,-0.0376 -0.15051,-0.0564 -0.08,-0.0188 -0.15993,-0.0188 -0.20226,0 -0.37159,0.0752 -0.16463,0.0706 -0.30574,0.18345 -0.14111,0.10818 -0.26341,0.2493 -0.1223,0.1364 -0.23048,0.26811 v 2.83633 q 0,0.0988 0.0517,0.15522 0.0517,0.0517 0.13641,0.0753 l 0.72907,0.18815 v 0.34337 h -2.61996 z" />
      <path
         inkscape:connector-curvature="0"
         id="path1655"
         style="font-style:normal;font-variant:normal;font-weight:normal;font-stretch:normal;font-size:10.58333302px;line-height:1.25;font-family:'Sitka Text';-inkscape-font-specification:'Sitka Text';letter-spacing:0px;word-spacing:0px;fill:#ffffff;fill-opacity:1;stroke:none;stroke-width:0.26458332"
         d="m 696.96589,141.05905 0.57856,-0.18815 q 0.08,-0.0235 0.1317,-0.0753 0.0565,-0.0564 0.0565,-0.15522 v -3.26437 q 0,-0.1223 -0.0706,-0.18815 -0.0706,-0.0706 -0.14581,-0.10348 l -0.58326,-0.24459 v -0.33397 l 1.66511,-0.2587 v 1.09596 h 0.047 q 0.21637,-0.30574 0.40452,-0.52211 0.19285,-0.21637 0.381,-0.35277 0.18814,-0.13641 0.37159,-0.19756 0.18815,-0.0611 0.3857,-0.0611 0.11289,0 0.23048,0.0141 0.1176,0.009 0.23048,0.0376 0.11289,0.0282 0.21638,0.0847 0.10818,0.0517 0.20225,0.1317 v 1.17122 h -0.57385 l -0.1364,-0.36218 q -0.0235,-0.0564 -0.08,-0.10348 -0.0517,-0.047 -0.127,-0.08 -0.0706,-0.0376 -0.15052,-0.0564 -0.08,-0.0188 -0.15992,-0.0188 -0.20226,0 -0.37159,0.0752 -0.16463,0.0706 -0.30575,0.18345 -0.14111,0.10818 -0.2634,0.2493 -0.1223,0.1364 -0.23048,0.26811 v 2.83633 q 0,0.0988 0.0517,0.15522 0.0517,0.0517 0.1364,0.0753 l 0.72908,0.18815 v 0.34337 h -2.61997 z" />
      <path
         inkscape:connector-curvature="0"
         id="path1657"
         style="font-style:normal;font-variant:normal;font-weight:normal;font-stretch:normal;font-size:10.58333302px;line-height:1.25;font-family:'Sitka Text';-inkscape-font-specification:'Sitka Text';letter-spacing:0px;word-spacing:0px;fill:#ffffff;fill-opacity:1;stroke:none;stroke-width:0.26458332"
         d="m 704.14167,141.52001 q -0.55034,0 -1.00189,-0.18344 -0.45156,-0.18345 -0.77141,-0.52211 -0.31985,-0.34337 -0.49859,-0.83256 -0.17404,-0.49389 -0.17404,-1.10537 0,-0.56444 0.17404,-1.04892 0.17403,-0.48919 0.49389,-0.84667 0.32455,-0.36219 0.78551,-0.56445 0.46097,-0.20696 1.03952,-0.20696 0.62089,0 1.08185,0.21637 0.46097,0.21637 0.762,0.57856 0.30104,0.36218 0.45156,0.84666 0.15052,0.47978 0.15052,1.0066 0,0.55974 -0.17404,1.04892 -0.17404,0.48448 -0.49859,0.84667 -0.31985,0.35748 -0.78082,0.56444 -0.46096,0.20226 -1.03951,0.20226 z m 0.0659,-0.5127 q 0.40922,0 0.67733,-0.19285 0.26811,-0.19285 0.42333,-0.48919 0.15993,-0.30104 0.22578,-0.66322 0.0659,-0.36219 0.0659,-0.70556 0,-0.41863 -0.08,-0.81844 -0.08,-0.40452 -0.2587,-0.71496 -0.17404,-0.31515 -0.45626,-0.508 -0.28222,-0.19286 -0.68674,-0.19286 -0.27282,0 -0.47978,0.0894 -0.20226,0.0847 -0.35748,0.23988 -0.15522,0.15052 -0.26341,0.35278 -0.10348,0.19756 -0.16933,0.42334 -0.0659,0.22107 -0.0941,0.46096 -0.0282,0.23989 -0.0282,0.46566 0,0.254 0.0282,0.52212 0.0329,0.2634 0.10348,0.5127 0.0706,0.2493 0.18345,0.47037 0.11289,0.22107 0.27752,0.39041 0.16463,0.16463 0.3857,0.2634 0.22107,0.0941 0.5033,0.0941 z" />
      <path
         inkscape:connector-curvature="0"
         id="path1659"
         style="font-style:normal;font-variant:normal;font-weight:normal;font-stretch:normal;font-size:10.58333302px;line-height:1.25;font-family:'Sitka Text';-inkscape-font-specification:'Sitka Text';letter-spacing:0px;word-spacing:0px;fill:#ffffff;fill-opacity:1;stroke:none;stroke-width:0.26458332"
         d="m 707.73923,139.98661 h 0.55504 l 0.15052,0.45625 q 0.0329,0.0941 0.0894,0.15993 0.0611,0.0659 0.127,0.10348 0.0988,0.0565 0.21166,0.0988 0.11289,0.0423 0.23519,0.0753 0.127,0.0329 0.2587,0.0517 0.13171,0.0188 0.26341,0.0188 0.19285,0 0.39041,-0.0423 0.20226,-0.0423 0.36689,-0.13641 0.16463,-0.0988 0.2634,-0.24459 0.10349,-0.15052 0.10349,-0.35748 0,-0.17404 -0.0565,-0.29633 -0.0517,-0.1223 -0.15522,-0.21167 -0.10348,-0.0894 -0.254,-0.15052 -0.15052,-0.0658 -0.34337,-0.1223 -0.26811,-0.0753 -0.53152,-0.15051 -0.2587,-0.0753 -0.5127,-0.15052 -0.26811,-0.08 -0.47037,-0.21167 -0.20226,-0.1317 -0.34337,-0.30574 -0.13641,-0.17874 -0.20697,-0.3857 -0.0706,-0.21167 -0.0706,-0.44686 0,-0.33396 0.16933,-0.61148 0.17404,-0.28222 0.46096,-0.48448 0.29163,-0.20696 0.66793,-0.31985 0.3763,-0.11289 0.79022,-0.11289 0.21637,0 0.40922,0.0141 0.19286,0.0141 0.36689,0.047 0.17874,0.0282 0.34337,0.0706 0.16934,0.0376 0.34808,0.0894 l 0.0188,1.21825 h -0.55974 l -0.15522,-0.48918 q -0.0282,-0.0753 -0.0894,-0.13641 -0.0611,-0.0611 -0.127,-0.0941 -0.16463,-0.08 -0.35748,-0.11759 -0.19285,-0.0376 -0.40452,-0.0376 -0.21637,0 -0.39982,0.047 -0.17874,0.0423 -0.31514,0.127 -0.13641,0.0847 -0.21167,0.21637 -0.0753,0.127 -0.0753,0.29634 0,0.17874 0.0517,0.31044 0.0564,0.127 0.16933,0.23048 0.11289,0.10348 0.28223,0.18345 0.16933,0.0753 0.39981,0.14581 0.10819,0.0329 0.22108,0.0706 0.11288,0.0329 0.22107,0.0659 0.11289,0.0282 0.22107,0.0659 0.10819,0.0329 0.21167,0.0611 0.29163,0.0894 0.5127,0.20226 0.22108,0.11289 0.36689,0.26811 0.15052,0.15052 0.22108,0.35278 0.0753,0.19755 0.0753,0.46096 0,0.381 -0.18345,0.68674 -0.18344,0.30574 -0.48448,0.52211 -0.30104,0.21167 -0.69144,0.31985 -0.39041,0.11289 -0.79493,0.11289 -0.26341,0 -0.5033,-0.0282 -0.23989,-0.0282 -0.45626,-0.08 -0.21637,-0.047 -0.41392,-0.10348 -0.19756,-0.0611 -0.3763,-0.1223 z" />
      <path
         inkscape:connector-curvature="0"
         id="path1661"
         style="font-style:normal;font-variant:normal;font-weight:normal;font-stretch:normal;font-size:10.58333302px;line-height:1.25;font-family:'Sitka Text';-inkscape-font-specification:'Sitka Text';letter-spacing:0px;word-spacing:0px;fill:#ffffff;fill-opacity:1;stroke:none;stroke-width:0.26458332"
         d="m 715.80275,140.64512 q -0.19755,0.27752 -0.42803,0.44686 -0.23049,0.16463 -0.46567,0.2587 -0.23519,0.0894 -0.46096,0.11759 -0.22108,0.0329 -0.40452,0.0329 -0.34337,0 -0.61148,-0.11759 -0.26811,-0.1223 -0.45626,-0.31515 -0.18345,-0.19756 -0.28693,-0.45156 -0.0988,-0.254 -0.0988,-0.53152 0,-0.32455 0.11289,-0.57385 0.11759,-0.254 0.30574,-0.44685 0.18815,-0.19285 0.43745,-0.32456 0.24929,-0.1364 0.5174,-0.22107 0.26812,-0.0847 0.54093,-0.1223 0.27282,-0.0376 0.5127,-0.0376 0.0517,0 0.15993,0.009 0.10819,0.005 0.22578,0.0188 0.12229,0.0141 0.22578,0.0282 0.10818,0.009 0.15522,0.0141 l 0.005,-0.69615 q 0,-0.26811 -0.0706,-0.44685 -0.0706,-0.17874 -0.19286,-0.28693 -0.12229,-0.10818 -0.29633,-0.15522 -0.17404,-0.047 -0.3857,-0.047 -0.23989,0 -0.48448,0.0847 -0.23989,0.0847 -0.46097,0.20696 -0.21637,0.1176 -0.40452,0.2493 -0.18814,0.127 -0.31514,0.21167 h -0.18815 l -0.0329,-0.91723 q 0.20226,-0.0752 0.40922,-0.15051 0.21167,-0.08 0.44686,-0.13641 0.23518,-0.0612 0.49859,-0.0988 0.26811,-0.0376 0.58796,-0.0376 0.34337,0 0.67263,0.0706 0.32926,0.0705 0.58326,0.254 0.2587,0.17874 0.41393,0.49389 0.15992,0.31514 0.15992,0.80433 l -0.009,2.61055 q 0,0.0894 0.0376,0.16463 0.0376,0.0706 0.0988,0.1223 0.0659,0.0517 0.14582,0.08 0.0847,0.0282 0.16463,0.0282 0.0517,0 0.10348,-0.009 0.0564,-0.0141 0.11759,-0.0329 0.0659,-0.0235 0.1223,-0.0517 0.0611,-0.0282 0.11759,-0.0517 h 0.0753 v 0.39511 q -0.0706,0.0517 -0.18815,0.1223 -0.11289,0.0705 -0.2493,0.13641 -0.1317,0.0611 -0.27281,0.10818 -0.13641,0.047 -0.2493,0.047 -0.22107,0 -0.3857,-0.0517 -0.16463,-0.0517 -0.27752,-0.15523 -0.10818,-0.10818 -0.16463,-0.26811 -0.0517,-0.15992 -0.0517,-0.381 z m -0.0188,-1.7827 q -0.48919,0 -0.89841,0.0423 -0.40452,0.0423 -0.69144,0.15993 -0.28693,0.11289 -0.44686,0.31985 -0.15522,0.20696 -0.15522,0.53152 0,0.26341 0.0847,0.44215 0.0847,0.17403 0.21637,0.27752 0.1317,0.10348 0.29163,0.14581 0.16463,0.0423 0.31985,0.0423 0.15522,0 0.33396,-0.0329 0.18345,-0.0329 0.35749,-0.0988 0.17403,-0.0659 0.32925,-0.16463 0.15523,-0.10348 0.25871,-0.24459 z" />
    </g>
    <g
       transform="matrix(1.171722,0,0,1.171722,-612.37344,61.049002)"
       id="g1703"
       style="fill:#ffffff">
      <path
         inkscape:connector-curvature="0"
         id="path1665"
         style="font-style:normal;font-variant:normal;font-weight:normal;font-stretch:normal;font-size:10.58333302px;line-height:1.25;font-family:'Sitka Text';-inkscape-font-specification:'Sitka Text';letter-spacing:0px;word-spacing:0px;fill:#ffffff;fill-opacity:1;stroke:none;stroke-width:0.26458332"
         d="m 585.88351,154.78913 0.33804,-0.10756 q 0.0351,-0.011 0.0593,-0.0351 0.0242,-0.0263 0.0242,-0.0746 v -2.38823 q 0,-0.0461 -0.0242,-0.0702 -0.0241,-0.0241 -0.0593,-0.0351 l -0.33804,-0.11195 v -0.16024 h 1.43997 q 0.15584,0 0.33364,0.0307 0.1778,0.0285 0.35341,0.10097 0.1756,0.0703 0.33584,0.18878 0.16244,0.11634 0.28536,0.29414 0.12293,0.1756 0.19536,0.41706 0.0746,0.23926 0.0746,0.55535 0,0.40389 -0.12511,0.69803 -0.12293,0.29414 -0.34024,0.4873 -0.21511,0.19097 -0.50486,0.28317 -0.28756,0.0922 -0.61681,0.0922 h -1.43119 z m 1.44216,-0.0988 q 0.27658,0 0.47633,-0.0812 0.20194,-0.0834 0.33145,-0.23926 0.13171,-0.15804 0.19317,-0.38633 0.0637,-0.23048 0.0637,-0.52462 0,-0.32048 -0.0856,-0.5773 -0.0834,-0.25902 -0.24146,-0.43901 -0.15585,-0.18 -0.37974,-0.27658 -0.22171,-0.0966 -0.49389,-0.0966 h -0.42365 v 2.6209 z" />
      <path
         inkscape:connector-curvature="0"
         id="path1667"
         style="font-style:normal;font-variant:normal;font-weight:normal;font-stretch:normal;font-size:10.58333302px;line-height:1.25;font-family:'Sitka Text';-inkscape-font-specification:'Sitka Text';letter-spacing:0px;word-spacing:0px;fill:#ffffff;fill-opacity:1;stroke:none;stroke-width:0.26458332"
         d="m 589.92203,152.12871 q -0.0615,0 -0.12072,-0.0198 -0.0571,-0.0198 -0.10098,-0.0549 -0.0417,-0.0373 -0.068,-0.09 -0.0263,-0.0527 -0.0263,-0.12072 0,-0.068 0.0263,-0.12293 0.0263,-0.0549 0.068,-0.0922 0.0439,-0.0373 0.10098,-0.0571 0.0593,-0.0198 0.12072,-0.0198 0.0746,0 0.1339,0.0176 0.0615,0.0176 0.10317,0.0527 0.0439,0.0351 0.068,0.0878 0.0241,0.0505 0.0241,0.11634 0,0.0702 -0.0263,0.12731 -0.0241,0.0549 -0.068,0.0944 -0.0439,0.0395 -0.10537,0.0615 -0.0593,0.0198 -0.12951,0.0198 z m -0.60144,2.66481 0.33145,-0.0878 q 0.0395,-0.011 0.0637,-0.0351 0.0263,-0.0264 0.0263,-0.0724 v -1.52996 q 0,-0.0461 -0.0263,-0.0724 -0.0263,-0.0285 -0.0702,-0.0417 l -0.32048,-0.10756 v -0.15805 l 0.85607,-0.11853 v 2.02824 q 0,0.0461 0.0263,0.0724 0.0263,0.0263 0.0593,0.0351 l 0.32926,0.0878 v 0.16024 h -1.27533 z" />
      <path
         inkscape:connector-curvature="0"
         id="path1669"
         style="font-style:normal;font-variant:normal;font-weight:normal;font-stretch:normal;font-size:10.58333302px;line-height:1.25;font-family:'Sitka Text';-inkscape-font-specification:'Sitka Text';letter-spacing:0px;word-spacing:0px;fill:#ffffff;fill-opacity:1;stroke:none;stroke-width:0.26458332"
         d="m 591.02065,154.29304 h 0.25901 l 0.0702,0.21293 q 0.0154,0.0439 0.0417,0.0746 0.0285,0.0307 0.0593,0.0483 0.0461,0.0263 0.0988,0.0461 0.0527,0.0197 0.10975,0.0351 0.0593,0.0154 0.12073,0.0241 0.0615,0.009 0.12292,0.009 0.09,0 0.18219,-0.0198 0.0944,-0.0198 0.17122,-0.0637 0.0768,-0.0461 0.12292,-0.11414 0.0483,-0.0702 0.0483,-0.16683 0,-0.0812 -0.0263,-0.13829 -0.0242,-0.0571 -0.0724,-0.0988 -0.0483,-0.0417 -0.11853,-0.0703 -0.0702,-0.0307 -0.16024,-0.0571 -0.12512,-0.0351 -0.24804,-0.0702 -0.12073,-0.0351 -0.23926,-0.0702 -0.12512,-0.0373 -0.21951,-0.0988 -0.0944,-0.0615 -0.16024,-0.14268 -0.0637,-0.0834 -0.0966,-0.17999 -0.0329,-0.0988 -0.0329,-0.20854 0,-0.15584 0.079,-0.28535 0.0812,-0.13171 0.21512,-0.22609 0.13609,-0.0966 0.3117,-0.14927 0.1756,-0.0527 0.36877,-0.0527 0.10097,0 0.19097,0.007 0.09,0.007 0.17121,0.022 0.0834,0.0132 0.16024,0.0329 0.079,0.0176 0.16244,0.0417 l 0.009,0.56852 h -0.26121 l -0.0724,-0.22829 q -0.0132,-0.0351 -0.0417,-0.0636 -0.0285,-0.0285 -0.0593,-0.0439 -0.0768,-0.0373 -0.16683,-0.0549 -0.09,-0.0176 -0.18877,-0.0176 -0.10098,0 -0.18658,0.0219 -0.0834,0.0198 -0.14707,0.0593 -0.0637,0.0395 -0.0988,0.10098 -0.0351,0.0593 -0.0351,0.13829 0,0.0834 0.0241,0.14487 0.0263,0.0593 0.079,0.10756 0.0527,0.0483 0.1317,0.0856 0.079,0.0351 0.18658,0.068 0.0505,0.0154 0.10317,0.0329 0.0527,0.0154 0.10317,0.0307 0.0527,0.0132 0.10316,0.0307 0.0505,0.0154 0.0988,0.0285 0.1361,0.0417 0.23926,0.0944 0.10317,0.0527 0.17122,0.12512 0.0702,0.0702 0.10317,0.16463 0.0351,0.0922 0.0351,0.21512 0,0.1778 -0.0856,0.32048 -0.0856,0.14268 -0.22609,0.24365 -0.14049,0.0988 -0.32268,0.14926 -0.18219,0.0527 -0.37096,0.0527 -0.12293,0 -0.23487,-0.0132 -0.11195,-0.0132 -0.21292,-0.0373 -0.10098,-0.0219 -0.19317,-0.0483 -0.0922,-0.0285 -0.1756,-0.0571 z" />
      <path
         inkscape:connector-curvature="0"
         id="path1671"
         style="font-style:normal;font-variant:normal;font-weight:normal;font-stretch:normal;font-size:10.58333302px;line-height:1.25;font-family:'Sitka Text';-inkscape-font-specification:'Sitka Text';letter-spacing:0px;word-spacing:0px;fill:#ffffff;fill-opacity:1;stroke:none;stroke-width:0.26458332"
         d="m 595.36971,154.38085 v 0.25243 q -0.0812,0.0658 -0.19097,0.1339 -0.10756,0.0659 -0.23488,0.11853 -0.12731,0.0527 -0.26999,0.0856 -0.14268,0.0329 -0.29194,0.0329 -0.23926,0 -0.44779,-0.079 -0.20634,-0.079 -0.3578,-0.23267 -0.15146,-0.15585 -0.23926,-0.38195 -0.0856,-0.22828 -0.0856,-0.52461 0,-0.26341 0.0812,-0.4917 0.0834,-0.23048 0.23268,-0.3995 0.15145,-0.17121 0.35999,-0.2678 0.21072,-0.0966 0.46315,-0.0966 0.23268,0 0.41487,0.0768 0.18439,0.0746 0.3117,0.20194 0.12731,0.12732 0.19316,0.29853 0.068,0.17122 0.068,0.3578 0,0.022 -0.002,0.0527 0,0.0307 -0.002,0.0658 -0.002,0.0329 -0.007,0.0659 -0.004,0.0307 -0.009,0.0527 h -1.6485 q 0,0.48292 0.21732,0.72657 0.21731,0.24365 0.61242,0.24365 0.12731,0 0.24145,-0.0285 0.11634,-0.0307 0.21293,-0.0746 0.0988,-0.0439 0.1778,-0.0944 0.0812,-0.0527 0.13828,-0.0944 z m -0.46097,-0.90656 q 0,-0.16024 -0.0307,-0.28975 -0.0285,-0.13171 -0.0944,-0.2239 -0.0636,-0.0922 -0.16902,-0.14048 -0.10316,-0.0505 -0.25243,-0.0505 -0.1317,0 -0.24365,0.0483 -0.10975,0.0461 -0.19536,0.13829 -0.0834,0.09 -0.13609,0.2217 -0.0527,0.12951 -0.0659,0.29634 z" />
      <path
         inkscape:connector-curvature="0"
         id="path1673"
         style="font-style:normal;font-variant:normal;font-weight:normal;font-stretch:normal;font-size:10.58333302px;line-height:1.25;font-family:'Sitka Text';-inkscape-font-specification:'Sitka Text';letter-spacing:0px;word-spacing:0px;fill:#ffffff;fill-opacity:1;stroke:none;stroke-width:0.26458332"
         d="m 595.81385,154.79352 0.2678,-0.0878 q 0.0395,-0.0132 0.0637,-0.0373 0.0241,-0.0241 0.0241,-0.0702 v -1.54972 q 0,-0.0461 -0.0263,-0.0702 -0.0263,-0.0263 -0.0702,-0.0461 l -0.25682,-0.10756 v -0.15585 l 0.75071,-0.12073 v 0.37536 h 0.0285 q 0.0988,-0.12951 0.19536,-0.20634 0.0988,-0.0768 0.19536,-0.11853 0.0966,-0.0417 0.19097,-0.0549 0.0966,-0.0132 0.18877,-0.0132 0.15585,0 0.29195,0.0461 0.13829,0.0439 0.24145,0.14048 0.10317,0.0966 0.16244,0.24804 0.0593,0.15146 0.0593,0.36219 v 1.26216 q 0,0.0527 0.0241,0.079 0.0263,0.0263 0.0637,0.0373 l 0.23706,0.0878 v 0.16024 h -1.07777 v -0.16024 l 0.22389,-0.0878 q 0.0395,-0.0154 0.0659,-0.0395 0.0263,-0.0241 0.0263,-0.0768 v -1.07339 q 0,-0.15585 -0.0198,-0.27658 -0.0197,-0.12072 -0.0746,-0.20414 -0.0549,-0.0834 -0.15585,-0.12731 -0.0988,-0.0439 -0.26121,-0.0439 -0.0702,0 -0.14927,0.011 -0.0768,0.011 -0.15365,0.0373 -0.0746,0.0241 -0.14268,0.068 -0.068,0.0439 -0.12073,0.10975 v 1.50801 q 0,0.0461 0.0263,0.0724 0.0285,0.0241 0.0637,0.0351 l 0.20414,0.0878 v 0.16024 h -1.08656 z m 0.5356,-2.56603 q 0.0154,-0.11634 0.0593,-0.21731 0.0461,-0.10317 0.11414,-0.17999 0.0702,-0.0768 0.15585,-0.12293 0.0856,-0.0461 0.18219,-0.0461 0.0658,0 0.15146,0.0263 0.0878,0.0263 0.18219,0.079 0.10975,0.0593 0.1756,0.0834 0.068,0.022 0.10756,0.022 0.0483,0 0.0856,-0.0176 0.0373,-0.0198 0.0637,-0.0527 0.0263,-0.0329 0.0439,-0.0768 0.0197,-0.0439 0.0307,-0.0966 h 0.19536 q -0.0154,0.11414 -0.0593,0.21731 -0.0417,0.10097 -0.10756,0.1778 -0.0659,0.0768 -0.15146,0.12292 -0.0856,0.0461 -0.18438,0.0461 -0.0329,0 -0.068,-0.004 -0.0329,-0.004 -0.0724,-0.0176 -0.0373,-0.0132 -0.0834,-0.0329 -0.0461,-0.022 -0.10316,-0.0549 -0.10317,-0.0593 -0.17561,-0.0834 -0.0724,-0.0241 -0.11414,-0.0241 -0.0944,0 -0.15585,0.0746 -0.0593,0.0724 -0.079,0.1778 z" />
      <path
         inkscape:connector-curvature="0"
         id="path1675"
         style="font-style:normal;font-variant:normal;font-weight:normal;font-stretch:normal;font-size:10.58333302px;line-height:1.25;font-family:'Sitka Text';-inkscape-font-specification:'Sitka Text';letter-spacing:0px;word-spacing:0px;fill:#ffffff;fill-opacity:1;stroke:none;stroke-width:0.26458332"
         d="m 600.34952,154.60035 q -0.0922,0.12951 -0.19975,0.20853 -0.10756,0.0768 -0.21731,0.12073 -0.10975,0.0417 -0.21512,0.0549 -0.10317,0.0154 -0.18877,0.0154 -0.16024,0 -0.28536,-0.0549 -0.12512,-0.0571 -0.21292,-0.14707 -0.0856,-0.0922 -0.1339,-0.21073 -0.0461,-0.11853 -0.0461,-0.24804 0,-0.15146 0.0527,-0.2678 0.0549,-0.11853 0.14268,-0.20853 0.0878,-0.09 0.20414,-0.15146 0.11634,-0.0637 0.24146,-0.10316 0.12512,-0.0395 0.25243,-0.0571 0.12732,-0.0176 0.23927,-0.0176 0.0241,0 0.0746,0.004 0.0505,0.002 0.10536,0.009 0.0571,0.007 0.10536,0.0132 0.0505,0.004 0.0724,0.007 l 0.002,-0.32487 q 0,-0.12512 -0.0329,-0.20853 -0.0329,-0.0834 -0.09,-0.1339 -0.0571,-0.0505 -0.13829,-0.0724 -0.0812,-0.022 -0.17999,-0.022 -0.11195,0 -0.22609,0.0395 -0.11195,0.0395 -0.21512,0.0966 -0.10097,0.0549 -0.18877,0.11633 -0.0878,0.0593 -0.14707,0.0988 h -0.0878 l -0.0154,-0.42803 q 0.0944,-0.0351 0.19097,-0.0702 0.0988,-0.0373 0.20853,-0.0637 0.10975,-0.0285 0.23268,-0.0461 0.12511,-0.0176 0.27438,-0.0176 0.16024,0 0.31389,0.0329 0.15366,0.0329 0.27219,0.11853 0.12073,0.0834 0.19317,0.23048 0.0746,0.14707 0.0746,0.37536 l -0.004,1.21826 q 0,0.0417 0.0176,0.0768 0.0176,0.0329 0.0461,0.0571 0.0307,0.0241 0.0681,0.0373 0.0395,0.0132 0.0768,0.0132 0.0241,0 0.0483,-0.004 0.0263,-0.007 0.0549,-0.0154 0.0307,-0.011 0.0571,-0.0242 0.0285,-0.0132 0.0549,-0.0241 h 0.0351 v 0.18439 q -0.0329,0.0241 -0.0878,0.0571 -0.0527,0.0329 -0.11634,0.0637 -0.0615,0.0285 -0.12731,0.0505 -0.0637,0.022 -0.11634,0.022 -0.10317,0 -0.17999,-0.0241 -0.0768,-0.0241 -0.12951,-0.0724 -0.0505,-0.0505 -0.0768,-0.12512 -0.0241,-0.0746 -0.0241,-0.1778 z m -0.009,-0.83193 q -0.22829,0 -0.41926,0.0198 -0.18877,0.0198 -0.32267,0.0746 -0.1339,0.0527 -0.20853,0.14927 -0.0724,0.0966 -0.0724,0.24804 0,0.12292 0.0395,0.20633 0.0395,0.0812 0.10098,0.12951 0.0615,0.0483 0.13609,0.068 0.0768,0.0198 0.14926,0.0198 0.0724,0 0.15585,-0.0154 0.0856,-0.0154 0.16683,-0.0461 0.0812,-0.0307 0.15365,-0.0768 0.0724,-0.0483 0.12073,-0.11415 z" />
      <path
         inkscape:connector-curvature="0"
         id="path1677"
         style="font-style:normal;font-variant:normal;font-weight:normal;font-stretch:normal;font-size:10.58333302px;line-height:1.25;font-family:'Sitka Text';-inkscape-font-specification:'Sitka Text';letter-spacing:0px;word-spacing:0px;fill:#ffffff;fill-opacity:1;stroke:none;stroke-width:0.26458332"
         d="m 603.23359,154.59816 h -0.0285 q -0.0966,0.14268 -0.20854,0.22389 -0.10975,0.0812 -0.21731,0.12073 -0.10536,0.0395 -0.19975,0.0483 -0.0922,0.009 -0.15365,0.009 -0.21951,0 -0.39292,-0.0856 -0.17341,-0.0878 -0.29414,-0.24146 -0.11853,-0.15365 -0.18219,-0.36219 -0.0637,-0.20853 -0.0637,-0.45437 0,-0.27439 0.0768,-0.51584 0.0768,-0.24146 0.22171,-0.42145 0.14487,-0.18 0.3534,-0.28317 0.20853,-0.10536 0.46974,-0.10536 0.10537,0 0.19097,0.0198 0.0856,0.0176 0.15805,0.0505 0.0724,0.0307 0.12951,0.0746 0.0571,0.0417 0.10097,0.0856 v -0.10317 -0.66291 q 0,-0.0483 -0.0241,-0.0746 -0.0241,-0.0263 -0.0702,-0.0417 l -0.33145,-0.12512 v -0.15585 l 0.86266,-0.0395 v 2.93919 q 0,0.0461 0.0285,0.0724 0.0285,0.0263 0.0703,0.0417 l 0.25901,0.10536 v 0.15805 l -0.74412,0.12292 h -0.011 z m -0.0395,-1.67483 q -0.0417,-0.0285 -0.11195,-0.0505 -0.068,-0.022 -0.14268,-0.0351 -0.0724,-0.0154 -0.14268,-0.0198 -0.0702,-0.007 -0.11414,-0.007 -0.18658,0 -0.32267,0.0702 -0.1361,0.0702 -0.22609,0.19317 -0.0878,0.12072 -0.13171,0.28096 -0.0439,0.16024 -0.0439,0.34243 0,0.20853 0.0395,0.38853 0.0417,0.1778 0.12732,0.3095 0.0878,0.13171 0.2217,0.20634 0.1339,0.0746 0.32267,0.0746 0.0571,0 0.12951,-0.0132 0.0724,-0.0154 0.14487,-0.0439 0.0746,-0.0285 0.14049,-0.0724 0.0658,-0.0461 0.10975,-0.11195 z" />
      <path
         inkscape:connector-curvature="0"
         id="path1679"
         style="font-style:normal;font-variant:normal;font-weight:normal;font-stretch:normal;font-size:10.58333302px;line-height:1.25;font-family:'Sitka Text';-inkscape-font-specification:'Sitka Text';letter-spacing:0px;word-spacing:0px;fill:#ffffff;fill-opacity:1;stroke:none;stroke-width:0.26458332"
         d="m 605.50893,155.00863 q -0.25682,0 -0.46755,-0.0856 -0.21073,-0.0856 -0.35999,-0.24365 -0.14926,-0.16024 -0.23268,-0.38853 -0.0812,-0.23048 -0.0812,-0.51584 0,-0.26341 0.0812,-0.4895 0.0812,-0.22829 0.23048,-0.39511 0.15146,-0.16902 0.36658,-0.26341 0.21512,-0.0966 0.48511,-0.0966 0.28975,0 0.50486,0.10097 0.21512,0.10098 0.3556,0.27 0.14049,0.16902 0.21073,0.39511 0.0702,0.22389 0.0702,0.46974 0,0.26121 -0.0812,0.4895 -0.0812,0.22609 -0.23267,0.39511 -0.14927,0.16682 -0.36438,0.26341 -0.21512,0.0944 -0.48511,0.0944 z m 0.0307,-0.23926 q 0.19097,0 0.31609,-0.09 0.12512,-0.09 0.19755,-0.22829 0.0746,-0.14049 0.10537,-0.3095 0.0307,-0.16902 0.0307,-0.32926 0,-0.19536 -0.0373,-0.38194 -0.0373,-0.18878 -0.12073,-0.33365 -0.0812,-0.14707 -0.21292,-0.23707 -0.1317,-0.09 -0.32048,-0.09 -0.12731,0 -0.22389,0.0417 -0.0944,0.0395 -0.16683,0.11195 -0.0724,0.0702 -0.12292,0.16463 -0.0483,0.0922 -0.079,0.19755 -0.0307,0.10317 -0.0439,0.21512 -0.0132,0.11195 -0.0132,0.21731 0,0.11853 0.0132,0.24365 0.0154,0.12292 0.0483,0.23926 0.0329,0.11634 0.0856,0.21951 0.0527,0.10317 0.12951,0.18219 0.0768,0.0768 0.18,0.12292 0.10316,0.0439 0.23487,0.0439 z" />
      <path
         inkscape:connector-curvature="0"
         id="path1681"
         style="font-style:normal;font-variant:normal;font-weight:normal;font-stretch:normal;font-size:10.58333302px;line-height:1.25;font-family:'Sitka Text';-inkscape-font-specification:'Sitka Text';letter-spacing:0px;word-spacing:0px;fill:#ffffff;fill-opacity:1;stroke:none;stroke-width:0.26458332"
         d="m 607.10877,154.79352 0.26999,-0.0878 q 0.0373,-0.011 0.0615,-0.0351 0.0263,-0.0264 0.0263,-0.0724 v -1.52337 q 0,-0.0571 -0.0329,-0.0878 -0.0329,-0.0329 -0.068,-0.0483 l -0.27219,-0.11414 v -0.15585 l 0.77705,-0.12073 v 0.51145 h 0.0219 q 0.10098,-0.14268 0.18878,-0.24365 0.09,-0.10097 0.1778,-0.16463 0.0878,-0.0637 0.17341,-0.0922 0.0878,-0.0285 0.18,-0.0285 0.0527,0 0.10755,0.007 0.0549,0.004 0.10756,0.0176 0.0527,0.0132 0.10097,0.0395 0.0505,0.0241 0.0944,0.0615 v 0.54657 h -0.2678 l -0.0636,-0.16902 q -0.011,-0.0263 -0.0373,-0.0483 -0.0241,-0.022 -0.0593,-0.0373 -0.0329,-0.0176 -0.0702,-0.0263 -0.0373,-0.009 -0.0746,-0.009 -0.0944,0 -0.17341,0.0351 -0.0768,0.0329 -0.14268,0.0856 -0.0659,0.0505 -0.12292,0.11634 -0.0571,0.0636 -0.10756,0.12512 v 1.32362 q 0,0.0461 0.0241,0.0724 0.0241,0.0241 0.0637,0.0351 l 0.34024,0.0878 v 0.16024 h -1.22265 z" />
      <path
         inkscape:connector-curvature="0"
         id="path1683"
         style="font-style:normal;font-variant:normal;font-weight:normal;font-stretch:normal;font-size:10.58333302px;line-height:1.25;font-family:'Sitka Text';-inkscape-font-specification:'Sitka Text';letter-spacing:0px;word-spacing:0px;fill:#ffffff;fill-opacity:1;stroke:none;stroke-width:0.26458332"
         d="m 610.91483,152.177 q -0.0154,-0.0351 -0.0395,-0.0658 -0.0241,-0.0307 -0.0637,-0.0483 l -0.21731,-0.0966 v -0.16024 h 1.14144 v 0.16024 l -0.37536,0.12951 0.60364,1.92507 0.0724,0.32487 h 0.0395 l 0.6234,-1.91629 0.23267,-0.57291 h 0.31609 l 0.69364,2.15774 0.0834,0.33585 h 0.0351 l 0.72437,-2.24116 -0.38194,-0.14268 v -0.16024 h 0.99436 v 0.16024 l -0.21512,0.10317 q -0.0329,0.0176 -0.0658,0.0505 -0.0307,0.0307 -0.0439,0.0659 l -0.74632,2.23237 -0.22609,0.56633 h -0.32268 l -0.70022,-2.18848 -0.0746,-0.29633 h -0.0329 l -0.62779,1.91848 -0.23048,0.56633 h -0.32706 z" />
      <path
         inkscape:connector-curvature="0"
         id="path1685"
         style="font-style:normal;font-variant:normal;font-weight:normal;font-stretch:normal;font-size:10.58333302px;line-height:1.25;font-family:'Sitka Text';-inkscape-font-specification:'Sitka Text';letter-spacing:0px;word-spacing:0px;fill:#ffffff;fill-opacity:1;stroke:none;stroke-width:0.26458332"
         d="m 617.55612,154.38085 v 0.25243 q -0.0812,0.0658 -0.19097,0.1339 -0.10756,0.0659 -0.23487,0.11853 -0.12731,0.0527 -0.26999,0.0856 -0.14268,0.0329 -0.29195,0.0329 -0.23926,0 -0.44779,-0.079 -0.20634,-0.079 -0.35779,-0.23267 -0.15146,-0.15585 -0.23927,-0.38195 -0.0856,-0.22828 -0.0856,-0.52461 0,-0.26341 0.0812,-0.4917 0.0834,-0.23048 0.23268,-0.3995 0.15146,-0.17121 0.35999,-0.2678 0.21073,-0.0966 0.46316,-0.0966 0.23267,0 0.41486,0.0768 0.18439,0.0746 0.3117,0.20194 0.12732,0.12732 0.19317,0.29853 0.068,0.17122 0.068,0.3578 0,0.022 -0.002,0.0527 0,0.0307 -0.002,0.0658 -0.002,0.0329 -0.007,0.0659 -0.004,0.0307 -0.009,0.0527 h -1.64849 q 0,0.48292 0.21731,0.72657 0.21731,0.24365 0.61242,0.24365 0.12732,0 0.24146,-0.0285 0.11634,-0.0307 0.21292,-0.0746 0.0988,-0.0439 0.1778,-0.0944 0.0812,-0.0527 0.13829,-0.0944 z m -0.46096,-0.90656 q 0,-0.16024 -0.0307,-0.28975 -0.0285,-0.13171 -0.0944,-0.2239 -0.0637,-0.0922 -0.16902,-0.14048 -0.10317,-0.0505 -0.25243,-0.0505 -0.13171,0 -0.24365,0.0483 -0.10976,0.0461 -0.19537,0.13829 -0.0834,0.09 -0.13609,0.2217 -0.0527,0.12951 -0.0659,0.29634 z" />
      <path
         inkscape:connector-curvature="0"
         id="path1687"
         style="font-style:normal;font-variant:normal;font-weight:normal;font-stretch:normal;font-size:10.58333302px;line-height:1.25;font-family:'Sitka Text';-inkscape-font-specification:'Sitka Text';letter-spacing:0px;word-spacing:0px;fill:#ffffff;fill-opacity:1;stroke:none;stroke-width:0.26458332"
         d="m 618.26368,151.99481 q 0,-0.0483 -0.0285,-0.0724 -0.0285,-0.0263 -0.068,-0.0439 l -0.27877,-0.12512 v -0.15585 l 0.81217,-0.0395 v 1.25557 0.12512 q 0.0944,-0.14048 0.20415,-0.2217 0.10975,-0.0834 0.21292,-0.12512 0.10536,-0.0417 0.19536,-0.0505 0.0922,-0.011 0.15365,-0.011 0.21951,0 0.39292,0.0856 0.17341,0.0856 0.29194,0.23926 0.12073,0.15365 0.18439,0.36438 0.0636,0.21073 0.0636,0.45657 0,0.27438 -0.0768,0.51804 -0.0768,0.24145 -0.22609,0.42364 -0.14926,0.18 -0.36877,0.28536 -0.21731,0.10536 -0.49828,0.10536 -0.12731,0 -0.25462,-0.0132 -0.12732,-0.011 -0.25024,-0.0373 -0.12073,-0.0241 -0.23926,-0.0637 -0.11634,-0.0395 -0.2217,-0.0944 z m 0.43681,2.57262 q 0.0417,0.0461 0.10756,0.0834 0.068,0.0351 0.14049,0.0615 0.0746,0.0263 0.14268,0.0417 0.068,0.0154 0.11414,0.0154 0.18877,0 0.32487,-0.0746 0.13829,-0.0768 0.22828,-0.20634 0.09,-0.1317 0.1339,-0.30291 0.0439,-0.17122 0.0439,-0.36219 0,-0.20633 -0.0417,-0.38413 -0.0395,-0.1778 -0.12732,-0.30731 -0.0856,-0.13171 -0.2217,-0.20414 -0.13609,-0.0746 -0.32487,-0.0746 -0.0549,0 -0.12511,0.0132 -0.068,0.011 -0.13829,0.0417 -0.0702,0.0285 -0.13829,0.0768 -0.068,0.0483 -0.11854,0.12073 z" />
      <path
         inkscape:connector-curvature="0"
         id="path1689"
         style="font-style:normal;font-variant:normal;font-weight:normal;font-stretch:normal;font-size:10.58333302px;line-height:1.25;font-family:'Sitka Text';-inkscape-font-specification:'Sitka Text';letter-spacing:0px;word-spacing:0px;fill:#ffffff;fill-opacity:1;stroke:none;stroke-width:0.26458332"
         d="m 623.68592,151.56897 h 0.33804 l -1.54752,4.32647 h -0.32926 z" />
      <path
         inkscape:connector-curvature="0"
         id="path1691"
         style="font-style:normal;font-variant:normal;font-weight:normal;font-stretch:normal;font-size:10.58333302px;line-height:1.25;font-family:'Sitka Text';-inkscape-font-specification:'Sitka Text';letter-spacing:0px;word-spacing:0px;fill:#ffffff;fill-opacity:1;stroke:none;stroke-width:0.26458332"
         d="m 628.26718,153.85623 q 0,-0.0461 -0.0241,-0.0702 -0.0219,-0.0241 -0.0571,-0.0329 l -0.43462,-0.11195 v -0.16024 h 1.3324 v 0.16024 l -0.27877,0.11195 q -0.0285,0.011 -0.0571,0.0351 -0.0263,0.0219 -0.0263,0.068 v 0.35999 q 0,0.20853 0,0.3534 0.002,0.14488 0.011,0.23048 -0.11853,0.0439 -0.26121,0.0856 -0.14268,0.0395 -0.30072,0.0702 -0.15585,0.0329 -0.32048,0.0505 -0.16243,0.0198 -0.32487,0.0198 -0.3117,0 -0.58608,-0.10537 -0.27438,-0.10756 -0.48291,-0.31389 -0.20634,-0.20853 -0.32707,-0.51365 -0.12073,-0.3073 -0.12073,-0.70461 0,-0.37755 0.11854,-0.68267 0.11853,-0.30511 0.32706,-0.52022 0.21073,-0.21732 0.49608,-0.33146 0.28536,-0.11634 0.6234,-0.11634 0.21073,0 0.37755,0.0154 0.16902,0.0154 0.30512,0.0417 0.13829,0.0241 0.24804,0.0527 0.10975,0.0285 0.20194,0.0527 v 0.80339 h -0.25901 l -0.0812,-0.45438 q -0.007,-0.0329 -0.0395,-0.0549 -0.0307,-0.0241 -0.0593,-0.0351 -0.079,-0.0351 -0.16902,-0.0615 -0.0878,-0.0285 -0.18219,-0.0483 -0.0922,-0.022 -0.18877,-0.0329 -0.0966,-0.011 -0.19317,-0.011 -0.22609,0 -0.41487,0.079 -0.18658,0.079 -0.32047,0.24146 -0.1339,0.16024 -0.20854,0.40389 -0.0746,0.24146 -0.0746,0.56633 0,0.32267 0.0746,0.59266 0.0746,0.2678 0.21732,0.46097 0.14487,0.19316 0.3534,0.30072 0.20853,0.10756 0.47413,0.10756 0.10976,0 0.20853,-0.0154 0.0988,-0.0154 0.18,-0.0373 0.0834,-0.0242 0.14487,-0.0483 0.0615,-0.0241 0.0988,-0.0417 z" />
      <path
         inkscape:connector-curvature="0"
         id="path1693"
         style="font-style:normal;font-variant:normal;font-weight:normal;font-stretch:normal;font-size:10.58333302px;line-height:1.25;font-family:'Sitka Text';-inkscape-font-specification:'Sitka Text';letter-spacing:0px;word-spacing:0px;fill:#ffffff;fill-opacity:1;stroke:none;stroke-width:0.26458332"
         d="m 629.44953,154.79352 0.26999,-0.0878 q 0.0373,-0.011 0.0615,-0.0351 0.0263,-0.0264 0.0263,-0.0724 v -1.52337 q 0,-0.0571 -0.0329,-0.0878 -0.0329,-0.0329 -0.068,-0.0483 l -0.27219,-0.11414 v -0.15585 l 0.77705,-0.12073 v 0.51145 h 0.022 q 0.10098,-0.14268 0.18878,-0.24365 0.09,-0.10097 0.1778,-0.16463 0.0878,-0.0637 0.17341,-0.0922 0.0878,-0.0285 0.17999,-0.0285 0.0527,0 0.10756,0.007 0.0549,0.004 0.10756,0.0176 0.0527,0.0132 0.10097,0.0395 0.0505,0.0241 0.0944,0.0615 v 0.54657 h -0.2678 l -0.0637,-0.16902 q -0.011,-0.0263 -0.0373,-0.0483 -0.0241,-0.022 -0.0593,-0.0373 -0.0329,-0.0176 -0.0702,-0.0263 -0.0373,-0.009 -0.0746,-0.009 -0.0944,0 -0.17341,0.0351 -0.0768,0.0329 -0.14268,0.0856 -0.0658,0.0505 -0.12292,0.11634 -0.0571,0.0636 -0.10756,0.12512 v 1.32362 q 0,0.0461 0.0241,0.0724 0.0241,0.0241 0.0637,0.0351 l 0.34023,0.0878 v 0.16024 h -1.22264 z" />
      <path
         inkscape:connector-curvature="0"
         id="path1695"
         style="font-style:normal;font-variant:normal;font-weight:normal;font-stretch:normal;font-size:10.58333302px;line-height:1.25;font-family:'Sitka Text';-inkscape-font-specification:'Sitka Text';letter-spacing:0px;word-spacing:0px;fill:#ffffff;fill-opacity:1;stroke:none;stroke-width:0.26458332"
         d="m 633.15648,154.60035 q -0.0922,0.12951 -0.19975,0.20853 -0.10756,0.0768 -0.21731,0.12073 -0.10976,0.0417 -0.21512,0.0549 -0.10317,0.0154 -0.18877,0.0154 -0.16024,0 -0.28536,-0.0549 -0.12512,-0.0571 -0.21292,-0.14707 -0.0856,-0.0922 -0.1339,-0.21073 -0.0461,-0.11853 -0.0461,-0.24804 0,-0.15146 0.0527,-0.2678 0.0549,-0.11853 0.14268,-0.20853 0.0878,-0.09 0.20414,-0.15146 0.11634,-0.0637 0.24146,-0.10316 0.12512,-0.0395 0.25243,-0.0571 0.12732,-0.0176 0.23926,-0.0176 0.0241,0 0.0746,0.004 0.0505,0.002 0.10536,0.009 0.0571,0.007 0.10536,0.0132 0.0505,0.004 0.0724,0.007 l 0.002,-0.32487 q 0,-0.12512 -0.0329,-0.20853 -0.0329,-0.0834 -0.09,-0.1339 -0.0571,-0.0505 -0.13829,-0.0724 -0.0812,-0.022 -0.17999,-0.022 -0.11195,0 -0.2261,0.0395 -0.11194,0.0395 -0.21511,0.0966 -0.10097,0.0549 -0.18878,0.11633 -0.0878,0.0593 -0.14707,0.0988 h -0.0878 l -0.0154,-0.42803 q 0.0944,-0.0351 0.19097,-0.0702 0.0988,-0.0373 0.20853,-0.0637 0.10975,-0.0285 0.23267,-0.0461 0.12512,-0.0176 0.27439,-0.0176 0.16024,0 0.31389,0.0329 0.15365,0.0329 0.27219,0.11853 0.12073,0.0834 0.19316,0.23048 0.0746,0.14707 0.0746,0.37536 l -0.004,1.21826 q 0,0.0417 0.0176,0.0768 0.0176,0.0329 0.0461,0.0571 0.0307,0.0241 0.0681,0.0373 0.0395,0.0132 0.0768,0.0132 0.0241,0 0.0483,-0.004 0.0263,-0.007 0.0549,-0.0154 0.0307,-0.011 0.0571,-0.0242 0.0285,-0.0132 0.0549,-0.0241 h 0.0351 v 0.18439 q -0.0329,0.0241 -0.0878,0.0571 -0.0527,0.0329 -0.11634,0.0637 -0.0615,0.0285 -0.12731,0.0505 -0.0637,0.022 -0.11634,0.022 -0.10317,0 -0.17999,-0.0241 -0.0768,-0.0241 -0.12951,-0.0724 -0.0505,-0.0505 -0.0768,-0.12512 -0.0241,-0.0746 -0.0241,-0.1778 z m -0.009,-0.83193 q -0.22829,0 -0.41926,0.0198 -0.18877,0.0198 -0.32267,0.0746 -0.1339,0.0527 -0.20853,0.14927 -0.0724,0.0966 -0.0724,0.24804 0,0.12292 0.0395,0.20633 0.0395,0.0812 0.10097,0.12951 0.0615,0.0483 0.1361,0.068 0.0768,0.0198 0.14926,0.0198 0.0724,0 0.15585,-0.0154 0.0856,-0.0154 0.16683,-0.0461 0.0812,-0.0307 0.15365,-0.0768 0.0724,-0.0483 0.12073,-0.11415 z m -0.83852,-1.51678 q 0.09,-0.12732 0.15805,-0.22609 0.0702,-0.10098 0.12292,-0.18 0.0549,-0.079 0.0988,-0.14268 0.0439,-0.0637 0.0834,-0.12073 0.0417,-0.0593 0.079,-0.0966 0.0373,-0.0373 0.0724,-0.0593 0.0351,-0.022 0.0724,-0.0307 0.0373,-0.009 0.0834,-0.009 0.0417,0 0.0768,0.0154 0.0373,0.0154 0.0637,0.0417 0.0263,0.0241 0.0395,0.0571 0.0154,0.0329 0.0154,0.0702 0,0.0417 -0.009,0.0768 -0.009,0.0329 -0.0307,0.0636 -0.0198,0.0285 -0.0505,0.0571 -0.0307,0.0285 -0.0746,0.0615 -0.0505,0.0439 -0.10975,0.09 -0.0571,0.0439 -0.13609,0.10317 -0.079,0.0571 -0.18439,0.13609 -0.10536,0.0768 -0.25024,0.18219 z" />
      <path
         inkscape:connector-curvature="0"
         id="path1697"
         style="font-style:normal;font-variant:normal;font-weight:normal;font-stretch:normal;font-size:10.58333302px;line-height:1.25;font-family:'Sitka Text';-inkscape-font-specification:'Sitka Text';letter-spacing:0px;word-spacing:0px;fill:#ffffff;fill-opacity:1;stroke:none;stroke-width:0.26458332"
         d="m 634.27352,154.79352 0.30292,-0.0878 q 0.0395,-0.011 0.0637,-0.0351 0.0241,-0.0264 0.0241,-0.0724 v -1.64849 h -0.43462 l 0.009,-0.25024 h 0.43243 q 0.0176,-0.32267 0.0922,-0.54657 0.0746,-0.22609 0.19756,-0.36438 0.12292,-0.14048 0.28975,-0.20414 0.16902,-0.0637 0.37316,-0.0637 0.0373,0 0.0922,0.007 0.0549,0.004 0.11414,0.0132 0.0615,0.009 0.11854,0.0198 0.0571,0.011 0.0988,0.022 l -0.0154,0.4017 h -0.0856 q -0.0483,-0.0198 -0.10097,-0.0417 -0.0527,-0.022 -0.11195,-0.0395 -0.0571,-0.0176 -0.12292,-0.0307 -0.0659,-0.0132 -0.14268,-0.0132 -0.12293,0 -0.19975,0.0307 -0.0746,0.0285 -0.11195,0.0768 -0.0154,0.0241 -0.0263,0.0856 -0.009,0.0615 -0.0176,0.15585 -0.007,0.0922 -0.011,0.21731 -0.002,0.12292 -0.002,0.27438 h 0.6673 l -0.011,0.25024 h -0.65413 v 1.64849 q 0,0.0461 0.0263,0.0724 0.0285,0.0263 0.0637,0.0351 l 0.3534,0.0878 v 0.16024 h -1.27094 z m 2.48701,-2.667 q -0.0615,0 -0.11853,-0.0198 -0.0571,-0.0198 -0.10098,-0.0549 -0.0439,-0.0373 -0.0702,-0.0878 -0.0241,-0.0527 -0.0241,-0.11853 0,-0.0702 0.0241,-0.12292 0.0263,-0.0549 0.0702,-0.0922 0.0439,-0.0373 0.10098,-0.0571 0.0571,-0.0198 0.11853,-0.0198 0.0746,0 0.1339,0.0176 0.0593,0.0176 0.10097,0.0527 0.0439,0.0351 0.068,0.0856 0.0241,0.0505 0.0241,0.11634 0,0.0702 -0.0263,0.12731 -0.0241,0.0549 -0.068,0.0944 -0.0417,0.0373 -0.10317,0.0593 -0.0593,0.0198 -0.12951,0.0198 z m -0.60584,2.667 0.33146,-0.0878 q 0.0395,-0.011 0.0637,-0.0351 0.0263,-0.0264 0.0263,-0.0724 v -1.52996 q 0,-0.0461 -0.0263,-0.0724 -0.0263,-0.0285 -0.0702,-0.0417 l -0.32048,-0.10756 v -0.15805 l 0.85608,-0.11853 v 2.02824 q 0,0.0461 0.0263,0.0724 0.0263,0.0263 0.0593,0.0351 l 0.32707,0.0878 v 0.16024 h -1.27314 z" />
      <path
         inkscape:connector-curvature="0"
         id="path1699"
         style="font-style:normal;font-variant:normal;font-weight:normal;font-stretch:normal;font-size:10.58333302px;line-height:1.25;font-family:'Sitka Text';-inkscape-font-specification:'Sitka Text';letter-spacing:0px;word-spacing:0px;fill:#ffffff;fill-opacity:1;stroke:none;stroke-width:0.26458332"
         d="m 639.7959,154.36768 v 0.25023 q -0.079,0.0659 -0.1778,0.1361 -0.0966,0.068 -0.21292,0.12512 -0.11414,0.0549 -0.24584,0.09 -0.13171,0.0351 -0.28097,0.0351 -0.25243,0 -0.45438,-0.0878 -0.19975,-0.09 -0.34243,-0.24804 -0.14048,-0.16024 -0.21731,-0.37975 -0.0746,-0.2195 -0.0746,-0.48071 0,-0.18658 0.0483,-0.35341 0.0483,-0.16682 0.1339,-0.30731 0.0856,-0.14268 0.20414,-0.25462 0.11853,-0.11415 0.25682,-0.19317 0.14048,-0.0812 0.29633,-0.12292 0.15585,-0.0417 0.31829,-0.0417 0.12951,0 0.23487,0.0198 0.10536,0.0197 0.18658,0.0505 0.0834,0.0285 0.14487,0.0593 0.0615,0.0285 0.10317,0.0483 l -0.0154,0.4434 h -0.0988 q -0.0878,-0.0505 -0.17122,-0.10756 -0.0834,-0.0571 -0.1756,-0.10316 -0.0922,-0.0483 -0.19975,-0.079 -0.10537,-0.0307 -0.23926,-0.0307 -0.0395,0 -0.0878,0.011 -0.0483,0.011 -0.0988,0.0307 -0.0483,0.0176 -0.0922,0.0461 -0.0417,0.0263 -0.0702,0.0593 -0.0395,0.0395 -0.0768,0.0966 -0.0351,0.0571 -0.0658,0.14267 -0.0285,0.0834 -0.0483,0.20634 -0.0176,0.12073 -0.0176,0.28975 0,0.22389 0.0505,0.40169 0.0505,0.1778 0.14707,0.30073 0.0966,0.12073 0.23926,0.18658 0.14487,0.0637 0.33584,0.0637 0.11195,0 0.21292,-0.0307 0.10098,-0.0307 0.18878,-0.0768 0.09,-0.0461 0.16463,-0.0988 0.0746,-0.0527 0.1317,-0.0966 z" />
      <path
         inkscape:connector-curvature="0"
         id="path1701"
         style="font-style:normal;font-variant:normal;font-weight:normal;font-stretch:normal;font-size:10.58333302px;line-height:1.25;font-family:'Sitka Text';-inkscape-font-specification:'Sitka Text';letter-spacing:0px;word-spacing:0px;fill:#ffffff;fill-opacity:1;stroke:none;stroke-width:0.26458332"
         d="m 641.29658,155.00863 q -0.25682,0 -0.46755,-0.0856 -0.21072,-0.0856 -0.35999,-0.24365 -0.14926,-0.16024 -0.23267,-0.38853 -0.0812,-0.23048 -0.0812,-0.51584 0,-0.26341 0.0812,-0.4895 0.0812,-0.22829 0.23048,-0.39511 0.15146,-0.16902 0.36657,-0.26341 0.21512,-0.0966 0.48511,-0.0966 0.28975,0 0.50487,0.10097 0.21511,0.10098 0.3556,0.27 0.14048,0.16902 0.21072,0.39511 0.0702,0.22389 0.0702,0.46974 0,0.26121 -0.0812,0.4895 -0.0812,0.22609 -0.23268,0.39511 -0.14926,0.16682 -0.36438,0.26341 -0.21511,0.0944 -0.48511,0.0944 z m 0.0307,-0.23926 q 0.19097,0 0.31609,-0.09 0.12512,-0.09 0.19756,-0.22829 0.0746,-0.14049 0.10536,-0.3095 0.0307,-0.16902 0.0307,-0.32926 0,-0.19536 -0.0373,-0.38194 -0.0373,-0.18878 -0.12073,-0.33365 -0.0812,-0.14707 -0.21292,-0.23707 -0.13171,-0.09 -0.32048,-0.09 -0.12732,0 -0.2239,0.0417 -0.0944,0.0395 -0.16682,0.11195 -0.0724,0.0702 -0.12293,0.16463 -0.0483,0.0922 -0.079,0.19755 -0.0307,0.10317 -0.0439,0.21512 -0.0132,0.11195 -0.0132,0.21731 0,0.11853 0.0132,0.24365 0.0154,0.12292 0.0483,0.23926 0.0329,0.11634 0.0856,0.21951 0.0527,0.10317 0.12951,0.18219 0.0768,0.0768 0.17999,0.12292 0.10317,0.0439 0.23487,0.0439 z" />
    </g>
    <path
       sodipodi:nodetypes="ccccc"
       inkscape:connector-curvature="0"
       style="fill:#ffffff;fill-opacity:1;stroke:none;stroke-width:0.338958"
       d="m 126.04012,185.78642 v 22.85322 h -10.95643 v -11.89667 c 2.46668,-4.31076 6.46899,-7.76841 10.95643,-10.95655 z"
       id="path1733" />
    <path
       sodipodi:nodetypes="ccccc"
       id="path1735"
       d="m 87.30234,185.78642 v 22.8532 h 10.956566 v -11.89665 c -3.171189,-3.97284 -6.452183,-7.87248 -10.956566,-10.95655 z"
       style="fill:#ffffff;fill-opacity:1;stroke:none;stroke-width:0.338958"
       inkscape:connector-curvature="0" />
    <path
       style="fill:#ffffff;fill-opacity:1;stroke:none;stroke-width:0.338958"
       d="m 87.302399,180.2047 v 5.58156 l 19.368901,19.36894 19.36898,-19.36894 v -5.58156 h -9.91395 l -9.45503,9.45508 -9.455049,-9.45508 z"
       id="path1737"
       inkscape:connector-curvature="0" />
    <path
       style="fill:#ffffff;fill-opacity:1;stroke:none;stroke-width:0.20337677"
       d="m 101.21002,203.77038 v 7.81657 H 87.302183 l 0.0019,5.46591 h 19.366357 v -7.82142 z"
       id="path1739"
       inkscape:connector-curvature="0"
       sodipodi:nodetypes="ccccccc" />
    <path
       sodipodi:nodetypes="ccccccc"
       inkscape:connector-curvature="0"
       id="path1741"
       d="m 112.13234,203.77038 v 7.81657 h 13.90778 v 5.46591 h -19.36618 c -0.74054,-2.6997 -0.53032,-5.28058 0,-7.82142 z"
       style="fill:#ffffff;fill-opacity:1;stroke:none;stroke-width:0.20337677" />
    <rect
       y="-152.12045"
       x="216.04492"
       height="18.77224"
       width="1.0079659"
       id="rect1822"
       style="fill:#ffffff;fill-opacity:1;stroke:none;stroke-width:0.17061777"
       transform="rotate(90)" />
    <rect
       transform="rotate(90)"
       style="fill:#ffffff;fill-opacity:1;stroke:none;stroke-width:0.17061777"
       id="rect1833"
       width="1.0079659"
       height="18.77224"
       x="216.04492"
       y="-79.997047" />
    <rect
       y="172.07848"
       x="109.5817"
       height="5.1811504"
       width="16.413969"
       id="rect2483"
       style="fill:#ffffff;fill-opacity:1;stroke:none;stroke-width:0.55603927" />
    <rect
       style="fill:#ffffff;fill-opacity:1;stroke:none;stroke-width:0.55603927"
       id="rect2485"
       width="16.413969"
       height="5.1811504"
       x="87.295105"
       y="172.07848" />
    <path
       style="fill:#ffffff;fill-opacity:1;stroke:none;stroke-width:4.5063076;stroke-linecap:round;stroke-linejoin:miter;stroke-miterlimit:4;stroke-dasharray:none;paint-order:stroke markers fill"
       d="m 106.64646,162.66612 -11.394406,11.3944 11.394406,11.39337 11.39337,-11.39337 z m 0,8.40714 a 2.9863977,2.9863977 0 0 1 2.98623,2.98726 2.9863977,2.9863977 0 0 1 -2.98623,2.98624 2.9863977,2.9863977 0 0 1 -2.98726,-2.98624 2.9863977,2.9863977 0 0 1 2.98726,-2.98726 z"
       id="rect2487"
       inkscape:connector-curvature="0" />
  </g>
</svg>
