<svg version="1.2" xmlns="http://www.w3.org/2000/svg" viewBox="0 422.2154167733637 300.15543023207334 66.7845832266363" width="301" height="67">
	<style>
		.s0 { fill: #ffffff } 
	</style>
	<g>
		<path fill-rule="evenodd" class="s0" d="m200.5 440.78h5.02v25.75h21.8l-3.2 5.04h-23.62zm-39.48 30.79l-18.6-29.35c-1.14-1.9-4.19-1.9-5.49 0.08l-18.44 29.27h6.1l5.56-8.84h11.89l3.13-5.03h-11.89l6.48-10.14 15.16 24.01zm11.32-30.78c-8.5 0-14.09 6.88-14.09 15.38 0 8.5 5.59 15.39 14.09 15.39l20.66-0.03 3.23-4.98h-23.74c-5.73 0-9.08-4.65-9.08-10.38 0-5.73 3.35-10.37 9.08-10.37h21.15l3.12-5.03zm-128.95 0c-8.49 0-14.09 6.89-14.09 15.39 0 8.49 5.6 15.38 14.09 15.38h21.8c8.5 0 14.09-6.89 14.09-15.38 0-8.5-5.59-15.39-14.09-15.39zm0 5.01h21.79c5.73 0 9.08 4.65 9.08 10.38 0 5.73-3.34 10.37-9.08 10.37h-21.79c-5.73 0-9.08-4.64-9.08-10.37 0-5.73 3.35-10.38 9.08-10.38zm189.31 12.82c0.82 4.55 3.95 7.93 8.84 7.93h23.74l-3.23 4.99-20.66 0.02c-8.5 0-14.09-6.89-14.09-15.38 0-8.5 5.59-15.39 14.09-15.39l24.42-0.01-3.12 5.02h-21.15c-4.82 0-7.97 3.33-8.84 7.79h29.84l-3.2 5.03h-26.64zm-124.99 0.44c2.4-0.04 4.68-1.02 6.36-2.73 1.68-1.71 2.62-4.01 2.62-6.4 0-2.4-0.94-4.7-2.62-6.41-1.68-1.7-3.96-2.69-6.36-2.73l-25.64-0.01v30.79h5.64v-25.77h20c1.09 0 2.14 0.44 2.92 1.21 0.77 0.78 1.2 1.82 1.2 2.92 0 1.09-0.43 2.14-1.2 2.91-0.78 0.78-1.83 1.21-2.92 1.21h-16.04l18.1 17.49h7.28l-12.96-12.47zm163.37-18.25c1.31 0 2.34 1.03 2.34 2.4 0 1.4-1.03 2.42-2.34 2.42-1.33 0-2.36-1.02-2.36-2.42 0-1.37 1.03-2.4 2.36-2.4v-0.48c-1.59 0-2.94 1.22-2.94 2.88 0 1.68 1.35 2.9 2.94 2.9 1.58 0 2.92-1.22 2.92-2.9 0-1.66-1.34-2.88-2.92-2.88z"/>
		<path fill-rule="evenodd" class="s0" d="m270.46 441.97h0.69c0.35 0 0.73 0.08 0.73 0.5 0 0.51-0.38 0.54-0.81 0.54h-0.61v0.43h0.58l0.88 1.44h0.57l-0.95-1.46c0.49-0.07 0.87-0.32 0.87-0.92 0-0.66-0.4-0.95-1.18-0.95h-1.28v3.33h0.51v-2.91z"/>
	</g>
</svg>