<?xml version="1.0" encoding="UTF-8" standalone="no"?>
<svg
   xmlns:dc="http://purl.org/dc/elements/1.1/"
   xmlns:cc="http://creativecommons.org/ns#"
   xmlns:rdf="http://www.w3.org/1999/02/22-rdf-syntax-ns#"
   xmlns:svg="http://www.w3.org/2000/svg"
   xmlns="http://www.w3.org/2000/svg"
   xmlns:sodipodi="http://sodipodi.sourceforge.net/DTD/sodipodi-0.dtd"
   xmlns:inkscape="http://www.inkscape.org/namespaces/inkscape"
   version="1.1"
   id="svg2"
   xml:space="preserve"
   width="172"
   height="46.666668"
   viewBox="0 0 172 46.666668"
   sodipodi:docname="suitedb-logo-blanco.svg"
   inkscape:version="0.92.4 (5da689c313, 2019-01-14)"><metadata
     id="metadata8"><rdf:RDF><cc:Work
         rdf:about=""><dc:format>image/svg+xml</dc:format><dc:type
           rdf:resource="http://purl.org/dc/dcmitype/StillImage" /><dc:title></dc:title></cc:Work></rdf:RDF></metadata><defs
     id="defs6" /><sodipodi:namedview
     pagecolor="#ffffff"
     bordercolor="#666666"
     borderopacity="1"
     objecttolerance="10"
     gridtolerance="10"
     guidetolerance="10"
     inkscape:pageopacity="0"
     inkscape:pageshadow="2"
     inkscape:window-width="1920"
     inkscape:window-height="1137"
     id="namedview4"
     showgrid="false"
     inkscape:zoom="8.6046512"
     inkscape:cx="13.913843"
     inkscape:cy="35.74394"
     inkscape:window-x="152"
     inkscape:window-y="-8"
     inkscape:window-maximized="1"
     inkscape:current-layer="g10" /><g
     id="g10"
     inkscape:groupmode="layer"
     inkscape:label="ink_ext_XXXXXX"
     transform="matrix(1.3333333,0,0,-1.3333333,0,46.666667)"><path
       style="fill:#ffffff;fill-opacity:1;fill-rule:nonzero;stroke:none;stroke-width:0.09999999"
       d="M 0.9719512,34.012696 4.0232208,4.2294922 16.140408,0.98339834 V 6.1601565 c -2.70343,0.02194 -4.788503,0.6585457 -6.2504878,1.9174808 -1.4800797,1.28085 -2.367092,3.1487867 -2.6557618,5.6088867 L 11.53201,14.09375 c 0.257,-1.4382 0.784736,-2.4993 1.577636,-3.1875 0.750351,-0.645889 1.766862,-0.9723177 3.030762,-1.0034179 v 5.9531249 c -0.371453,0.09554 -0.658273,0.172955 -1.108887,0.285645 -2.367999,0.593 -4.027863,1.315799 -4.984863,2.170899 -1.3430098,1.2078 -2.0156245,2.679098 -2.0156245,4.420898 0,1.114 0.3125002,2.157976 0.9374997,3.125977 0.632811,0.9691 1.5469638,1.707138 2.7348628,2.219238 1.1949,0.5078 2.640714,0.766113 4.328614,0.766113 0.0373,0 0.07135,-0.0027 0.108398,-0.0029 v 5.170898 z M 15.985135,25.172364 c -1.2929,0 -2.306026,-0.261562 -3.032227,-0.780762 -0.4688,-0.3441 -0.703125,-0.79764 -0.703125,-1.360839 0,-0.523101 0.21835,-0.968262 0.65625,-1.343262 0.48133,-0.400752 1.584018,-0.820094 3.234375,-1.250977 v 4.727051 c -0.05402,9.78e-4 -0.100039,0.0088 -0.155273,0.0088 z"
       id="path14"
       inkscape:connector-curvature="0" /><path
       style="fill:#ffffff;fill-opacity:1;fill-rule:nonzero;stroke:none;stroke-width:0.09999999"
       d="m 16.059629,34.012696 v -5.170898 c 2.694403,-0.01622 4.725462,-0.619917 6.09375,-1.810547 1.3938,-1.211 2.125212,-2.820325 2.187012,-4.828125 l -4.422364,-0.1875 c -0.187099,1.125 -0.592285,1.929186 -1.217285,2.421387 -0.597113,0.467276 -1.484366,0.705618 -2.641113,0.726562 v -4.727051 c 0.27694,-0.07231 0.533917,-0.143815 0.84375,-0.216797 2.1559,-0.5 3.75035,-1.025453 4.78125,-1.564453 1.0309,-0.543 1.835387,-1.288586 2.421387,-2.233886 0.582,-0.937901 0.875976,-2.102064 0.875976,-3.484864 0,-1.2609 -0.352463,-2.436134 -1.047363,-3.5302737 -0.6988,-1.0937498 -1.687238,-1.9145535 -2.969238,-2.453613 -1.2731,-0.5312506 -2.859237,-0.7968751 -4.765137,-0.7968751 -0.04831,0 -0.09271,0.00401 -0.140625,0.00439 V 0.98339834 L 28.176817,4.2294922 31.228086,34.012696 Z m 0,-18.156739 V 9.9028321 c 0.0646,-0.00159 0.121572,-0.011719 0.1875,-0.011719 1.425,0 2.500261,0.2993739 3.218262,0.9052739 0.7191,0.6011 1.078125,1.312588 1.078125,2.125488 0,0.5082 -0.151537,0.9457 -0.452637,1.3125 -0.3039,0.364 -0.83675,0.679149 -1.59375,0.952149 -0.395731,0.132816 -1.289717,0.374208 -2.4375,0.669433 z"
       id="path16"
       inkscape:connector-curvature="0" /><path
       inkscape:connector-curvature="0"
       id="path18"
       style="fill:#ffffff;fill-opacity:1;fill-rule:nonzero;stroke:none;stroke-width:0.1"
       d="m 43.6051,6.51602 v 2.375 c -0.5852,-0.84414 -1.3512,-1.51211 -2.2961,-2 -0.9379,-0.48907 -1.9301,-0.73516 -2.9692,-0.73516 -1.0738,0 -2.0308,0.23516 -2.875,0.70312 -0.8437,0.46915 -1.4609,1.125 -1.8437,1.96915 C 33.2461,9.68008 33.059,10.852 33.059,12.3441 V 22.391 h 4.2031 v -7.2969 c 0,-2.2312 0.0777,-3.6019 0.234,-4.1101 0.1559,-0.5 0.4379,-0.8981 0.8437,-1.18712 0.4063,-0.29297 0.9223,-0.4379 1.5473,-0.4379 0.718,0 1.359,0.19219 1.9219,0.57813 0.5699,0.39489 0.9609,0.88279 1.1711,1.46879 0.2187,0.582 0.3289,2.016 0.3289,4.2972 v 6.6879 h 4.1871 V 6.51602 Z" /><path
       inkscape:connector-curvature="0"
       id="path20"
       style="fill:#ffffff;fill-opacity:1;fill-rule:nonzero;stroke:none;stroke-width:0.1"
       d="m 51.8711,28.4371 h 4.20273 V 24.54687 H 51.8711 Z m 0,-6.0461 h 4.20273 V 6.516 H 51.8711 Z" /><path
       inkscape:connector-curvature="0"
       id="path22"
       style="fill:#ffffff;fill-opacity:1;fill-rule:nonzero;stroke:none;stroke-width:0.1"
       d="m 67.6449,22.391 v -3.3441 h -2.875 V 12.641 c 0,-1.293 0.0231,-2.0469 0.0781,-2.266 0.0622,-0.2109 0.1872,-0.38711 0.375,-0.53086 0.195,-0.13711 0.4372,-0.20312 0.718,-0.20312 0.3828,0 0.9461,0.13203 1.6879,0.40588 l 0.359,-3.26604 c -0.9801,-0.41367 -2.0899,-0.625 -3.3277,-0.625 -0.75,0 -1.4332,0.125 -2.0473,0.375 -0.6051,0.2582 -1.0539,0.58633 -1.343,0.98516 -0.282,0.40586 -0.4769,0.95312 -0.5789,1.63984 -0.093,0.48906 -0.1398,1.47694 -0.1398,2.96914 v 6.9219 h -1.9223 v 3.3441 h 1.9223 v 3.1559 L 64.7699,28 v -5.609 z" /><path
       inkscape:connector-curvature="0"
       id="path24"
       style="fill:#ffffff;fill-opacity:1;fill-rule:nonzero;stroke:none;stroke-width:0.1"
       d="M 79.777,11.5621 83.9648,10.859 C 83.434,9.32813 82.582,8.16016 81.418,7.35898 80.2621,6.55508 78.809,6.15586 77.059,6.15586 c -2.7621,0 -4.8051,0.89922 -6.125,2.70312 -1.0551,1.44612 -1.5789,3.27382 -1.5789,5.48512 0,2.625 0.6879,4.6789 2.0629,6.1719 1.375,1.4879 3.1129,2.234 5.2191,2.234 2.3629,0 4.2258,-0.7809 5.593,-2.3441 1.364,-1.5539 2.0199,-3.9368 1.9687,-7.1559 H 73.668 c 0.0308,-1.25 0.3672,-2.227 1.016,-2.9219 0.6441,-0.68708 1.4531,-1.03122 2.4211,-1.03122 0.657,0 1.2078,0.17617 1.657,0.53125 0.4449,0.36287 0.7848,0.94177 1.0149,1.73397 z m 0.25,4.25 c -0.0309,1.2188 -0.3508,2.1449 -0.9532,2.782 -0.5937,0.6329 -1.3199,0.9528 -2.1718,0.9528 -0.918,0 -1.679,-0.3399 -2.2809,-1.016 -0.5941,-0.668 -0.8871,-1.5739 -0.875,-2.7188 z" /><path
       inkscape:connector-curvature="0"
       id="path28"
       style="fill:#ffffff;fill-opacity:1;fill-rule:nonzero;stroke:none;stroke-width:0.1"
       d="m 87.6449,28.4488 h 8.0781 c 1.8321,0 3.2219,-0.1398 4.1719,-0.4218 1.2891,-0.375 2.3941,-1.0469 3.3121,-2.0149 0.914,-0.9691 1.613,-2.157 2.094,-3.5633 0.476,-1.3976 0.719,-3.1207 0.719,-5.1718 0,-1.804 -0.227,-3.3551 -0.672,-4.6559 -0.555,-1.6051 -1.336,-2.89805 -2.344,-3.87501 -0.774,-0.75 -1.813,-1.33593 -3.1251,-1.75 C 98.9102,6.68398 97.6051,6.52695 95.973,6.52695 H 87.6449 Z M 92.066,24.7461 V 10.2148 h 3.2969 c 1.2391,0 2.1332,0.0704 2.6883,0.2192 0.7187,0.175 1.3117,0.4762 1.7808,0.9058 0.477,0.4262 0.863,1.1293 1.156,2.109 0.301,0.9883 0.453,2.3321 0.453,4.0313 0,1.6879 -0.152,2.9847 -0.453,3.891 -0.293,0.9059 -0.711,1.6129 -1.2501,2.125 -0.543,0.5078 -1.2258,0.8519 -2.0469,1.0309 -0.625,0.1449 -1.839,0.2191 -3.6398,0.2191 z" /><path
       inkscape:connector-curvature="0"
       id="path30"
       style="fill:#ffffff;fill-opacity:1;fill-rule:nonzero;stroke:none;stroke-width:0.1"
       d="m 109.805,28.4488 h 8.75 c 1.738,0 3.035,-0.0738 3.89,-0.2187 0.852,-0.1481 1.614,-0.4492 2.282,-0.9063 0.675,-0.4609 1.238,-1.0699 1.687,-1.8277 0.445,-0.7621 0.672,-1.6172 0.672,-2.5621 0,-1.032 -0.277,-1.977 -0.828,-2.8289 -0.555,-0.8551 -1.305,-1.4961 -2.25,-1.9211 1.332,-0.3988 2.359,-1.0629 3.078,-2 0.719,-0.9379 1.078,-2.0391 1.078,-3.2969 0,-1 -0.234,-1.9769 -0.703,-2.92226 -0.461,-0.93789 -1.09,-1.68789 -1.891,-2.25 -0.804,-0.56289 -1.793,-0.90586 -2.968,-1.03086 -0.743,-0.08593 -2.524,-0.1371 -5.344,-0.15703 h -7.453 z m 4.422,-3.6558 v -5.0629 h 2.906 c 1.719,0 2.785,0.0238 3.203,0.0789 0.758,0.082 1.352,0.343 1.781,0.7808 0.438,0.4372 0.656,1.0082 0.656,1.7192 0,0.675 -0.187,1.2219 -0.562,1.6398 -0.375,0.4262 -0.93,0.6883 -1.656,0.7813 -0.438,0.0398 -1.7,0.0629 -3.782,0.0629 z m 0,-8.7032 v -5.875 h 4.093 c 1.594,0 2.602,0.0473 3.032,0.1403 0.664,0.114 1.203,0.3988 1.609,0.8597 0.414,0.4692 0.625,1.0942 0.625,1.875 0,0.6563 -0.164,1.2114 -0.484,1.6723 -0.313,0.457 -0.774,0.7891 -1.375,1 -0.606,0.218 -1.914,0.3277 -3.922,0.3277 z" /></g></svg>