<svg xmlns="http://www.w3.org/2000/svg" viewBox="0 0 374.01 51.56"><defs><style>.cls-1{fill:#fff;}</style></defs><title>tt-logo-line-white</title><g id="Layer_2" data-name="Layer 2"><g id="Layer_1-2" data-name="Layer 1"><path class="cls-1" d="M96.89,8.37h7.33V14.3h5.28v6h-5.28V31.22c0,4.2,1.29,5.07,4.15,5.07a12.23,12.23,0,0,0,1.35-.05v6.36a15.15,15.15,0,0,1-3.18.27c-6.74,0-9.7-3.77-9.7-11.43V20.33h-3v-6h3Z"/><path class="cls-1" d="M124.45,24.43A11.42,11.42,0,0,1,130.54,26V24.16c0-2.48-1.83-4.15-5.12-4.15a16.6,16.6,0,0,0-7.49,2l-2.8-5.07a21,21,0,0,1,11.1-3.34c9.06,0,11.75,4.74,11.75,11.05V42.49H131.4l-.49-1.83c-1.46,1.56-3.61,2.53-6.85,2.53-5.71,0-10.56-3.5-10.56-9.43C113.51,28.2,117.87,24.43,124.45,24.43Zm1.4,13c2.8,0,4.85-1.51,4.85-3.88s-2-3.93-4.9-3.93-4.85,1.62-4.85,3.93S123,37.42,125.85,37.42Z"/><path class="cls-1" d="M149.58,42.49,139.5,14.3h7.92l6.47,20.27,6.47-20.27h7.92L158.21,42.49Z"/><path class="cls-1" d="M179.78,24.43A11.43,11.43,0,0,1,185.87,26V24.16c0-2.48-1.83-4.15-5.12-4.15a16.6,16.6,0,0,0-7.49,2l-2.8-5.07a21,21,0,0,1,11.1-3.34c9.06,0,11.75,4.74,11.75,11.05V42.49h-6.58l-.49-1.83c-1.46,1.56-3.61,2.53-6.85,2.53-5.71,0-10.57-3.5-10.57-9.43C168.84,28.2,173.2,24.43,179.78,24.43Zm1.4,13c2.8,0,4.85-1.51,4.85-3.88s-2-3.93-4.9-3.93-4.85,1.62-4.85,3.93S178.38,37.42,181.18,37.42Z"/><path class="cls-1" d="M222.94,26.21V42.49H215.5V25.35a4.72,4.72,0,0,0-4.69-5.07c-3.07,0-5,2.26-5,5.28V42.49h-7.44V14.3h7.28v3.29a8.89,8.89,0,0,1,7.55-4C221.21,13.6,222.94,20.23,222.94,26.21Z"/><path class="cls-1" d="M242.22,13.6c8.62,0,15.2,6.36,15.2,14.88s-6.36,14.71-15.2,14.71S227.07,37,227.07,28.47,233.65,13.6,242.22,13.6Zm0,23c4.47,0,7.76-3.34,7.76-8.14s-3.29-8.3-7.76-8.3-7.71,3.45-7.71,8.3S237.8,36.61,242.22,36.61Z"/><path class="cls-1" d="M262.87,8.69h2.7v5.82h6.58v2.43h-6.58V32.68c0,6.09,1.4,7.65,5.61,7.65.59,0,1.24-.05,1.24-.05V42.7s-1.29.11-2.32.11c-4.42,0-7.22-2.75-7.22-8.41V16.94h-3.45V14.51h3.45Z"/><path class="cls-1" d="M289.12,13.81c8,0,13.15,6,13.15,14V29H278.45c0,7.44,4.74,11.75,11.43,11.75a11.18,11.18,0,0,0,9.65-4.8l1.78,1.24a12.81,12.81,0,0,1-11.43,6c-8.25,0-14.23-5.88-14.23-14.61C275.64,19.42,282,13.81,289.12,13.81Zm10.35,12.77c-.32-7-5.12-10.3-10.4-10.3-5.07,0-9.92,3.45-10.46,10.3Z"/><path class="cls-1" d="M317,24.75a11.17,11.17,0,0,1,8,3V23.51c0-4.69-3.07-7.22-7.65-7.22a16.51,16.51,0,0,0-8.62,2.59l-1.13-2.1a18.82,18.82,0,0,1,9.92-3c7,0,10.19,4,10.19,9.86V42.49h-2.21l-.48-2.64a10.13,10.13,0,0,1-8,3.34c-6.36,0-10.73-4.1-10.73-9.27S310.84,24.75,317,24.75Zm.16,16c4.74,0,8-2.91,8-6.79s-3.18-6.68-8.08-6.68-8.09,2.91-8.09,6.68S312.19,40.71,317.2,40.71Z"/><path class="cls-1" d="M374,42.49h-2.7V25.62c0-6.2-2.43-9.32-7.28-9.32-4.53,0-8,3.23-8,9.38V42.49h-2.69V24.54c0-5.17-2.91-8.25-7.39-8.25-4.26,0-7.92,3.67-7.92,9.16v17h-2.7v-28H338v4.42a9.1,9.1,0,0,1,8.25-5.12c4.47,0,7.6,2.26,8.84,5.61,1.62-3.72,5.17-5.61,9.27-5.61,6.2,0,9.65,4.47,9.65,10.67Z"/><path class="cls-1" d="M72.42,25.78,51.05,4.41a15.16,15.16,0,0,0-21.37,0,15,15,0,0,0-3.9,6.85c-4-.77-13.66.64-16,11.06h0c-14.1,5.23-13.1,27.26,4.46,29.23H61.72A15.07,15.07,0,0,0,72.42,25.78ZM3.94,36.45a11.18,11.18,0,0,1,5.59-9.65,14.07,14.07,0,0,0,4,8.51s5.85,5.92,6.05,6.16c1.94,2.3,2.23,4.4,1.62,6.08H15.06A11.17,11.17,0,0,1,3.94,36.45ZM60.89,47.57l-35.54,0s1.26-4.37-2.67-8.65c-.17-.18-6.2-6.28-6.2-6.28-9-10.26,3.29-22.3,12.7-15.88-.58-12.92,13-16,19.24-9.33L69,28.1C77.18,36.23,71.11,47.08,60.89,47.57Z"/></g></g></svg>